<?xml version="1.0" standalone="no"?>
<!DOCTYPE svg PUBLIC "-//W3C//DTD SVG 20010904//EN"
 "http://www.w3.org/TR/2001/REC-SVG-20010904/DTD/svg10.dtd">
<svg version="1.0" xmlns="http://www.w3.org/2000/svg"
 width="17.000000pt" height="842.000000pt" viewBox="0 0 17.000000 842.000000"
 preserveAspectRatio="xMidYMid meet">

<g transform="translate(0.000000,842.000000) scale(0.100000,-0.100000)"
fill="#000000" stroke="none">
<path d="M65 7580 c33 -33 62 -60 64 -60 3 0 -21 27 -54 60 -33 33 -62 60 -64
60 -3 0 21 -27 54 -60z"/>
<path d="M84 7350 c0 -69 1 -97 3 -62 2 34 2 90 0 125 -2 34 -3 6 -3 -63z"/>
<path d="M24 7291 c20 -22 26 -25 26 -13 0 4 -10 13 -22 21 -23 14 -23 14 -4
-8z"/>
<path d="M43 6380 c0 -47 2 -66 4 -42 2 23 2 61 0 85 -2 23 -4 4 -4 -43z"/>
<path d="M20 5675 c13 -14 26 -25 28 -25 3 0 -5 11 -18 25 -13 14 -26 25 -28
25 -3 0 5 -11 18 -25z"/>
<path d="M44 5573 c-23 -24 -39 -43 -35 -43 4 0 22 16 41 35 l34 35 23 -22
c30 -28 30 -16 1 14 l-23 23 -41 -42z"/>
<path d="M42 5411 c-2 -63 -4 -72 -16 -61 -8 6 -17 30 -19 53 l-4 42 -1 -45
c-2 -44 0 -47 80 -125 77 -74 77 -67 1 15 -30 32 -32 41 -36 115 l-3 80 -2
-74z"/>
<path d="M65 4650 c33 -33 62 -60 64 -60 3 0 -21 27 -54 60 -33 33 -62 60 -64
60 -3 0 21 -27 54 -60z"/>
<path d="M42 4441 c-2 -65 -4 -72 -17 -61 -9 7 -17 11 -20 8 -2 -2 32 -40 77
-84 83 -80 88 -78 11 4 -42 44 -42 46 -46 126 l-3 81 -2 -74z"/>
<path d="M10 4297 c0 -1 35 -36 78 -77 l77 -75 -75 78 c-69 71 -80 82 -80 74z"/>
<path d="M48 4177 c39 -40 41 -44 25 -60 -16 -16 -19 -15 -43 6 l-25 22 23
-26 c22 -25 22 -26 4 -42 -10 -10 -22 -14 -25 -10 -4 3 -6 -16 -5 -43 1 -44 2
-45 5 -11 4 32 7 36 19 26 8 -6 15 -23 15 -38 1 -18 3 -20 6 -8 5 18 6 18 24
1 16 -14 19 -31 19 -94 0 -72 -2 -78 -31 -106 -49 -46 -52 -58 -21 -85 l27
-24 -22 26 -23 25 40 39 40 39 0 81 0 81 -40 39 c-38 37 -39 40 -23 57 16 18
19 17 72 -34 l56 -53 -53 55 c-49 53 -51 57 -35 73 16 16 19 15 53 -15 19 -18
1 2 -40 45 -41 42 -77 77 -79 77 -3 0 14 -19 37 -43z"/>
<path d="M124 3597 c-2 -7 -3 -80 -2 -162 l3 -150 5 163 c3 89 4 162 2 162 -1
0 -5 -6 -8 -13z"/>
<path d="M84 3445 c0 -66 1 -92 3 -57 2 34 2 88 0 120 -2 31 -3 3 -3 -63z"/>
<path d="M85 3160 c-44 -44 -75 -80 -69 -80 9 0 116 106 143 143 26 34 4 15
-74 -63z"/>
<path d="M92 2930 c-2 -73 -3 -75 -44 -117 -23 -23 -39 -46 -35 -50 4 -4 27
13 50 37 l42 45 -6 80 -5 80 -2 -75z"/>
<path d="M120 2481 c0 -88 3 -162 8 -164 4 -3 7 69 7 159 0 90 -3 164 -7 164
-5 0 -8 -72 -8 -159z"/>
<path d="M43 2480 c0 -47 2 -66 4 -42 2 23 2 61 0 85 -2 23 -4 4 -4 -43z"/>
<path d="M107 2214 c-31 -31 -61 -53 -66 -49 -6 3 -8 0 -5 -8 3 -9 -4 -22 -18
-31 -15 -11 -17 -16 -7 -16 16 0 166 146 158 155 -3 3 -31 -20 -62 -51z"/>
<path d="M90 1953 l0 -80 -44 -41 c-25 -23 -41 -44 -37 -46 4 -3 26 14 49 37
40 41 41 43 43 120 1 42 -1 80 -4 84 -4 3 -7 -30 -7 -74z"/>
<path d="M43 1670 c-23 -22 -39 -40 -35 -40 5 0 26 18 47 40 50 51 43 51 -12
0z"/>
<path d="M122 1503 c2 -173 6 -158 10 35 2 67 0 122 -4 122 -5 0 -7 -71 -6
-157z"/>
<path d="M43 1505 c0 -44 2 -61 4 -37 2 23 2 59 0 80 -2 20 -4 1 -4 -43z"/>
<path d="M98 1213 c-80 -81 -83 -83 -77 -83 3 0 38 34 79 75 41 41 72 75 70
75 -3 0 -35 -30 -72 -67z"/>
<path d="M92 979 c-2 -72 -4 -77 -37 -109 -19 -19 -35 -41 -35 -49 0 -10 15
-1 40 25 l41 40 -4 85 -3 84 -2 -76z"/>
<path d="M127 683 c-4 -3 -6 -74 -5 -157 l2 -151 5 155 c7 172 7 162 -2 153z"/>
<path d="M43 530 c0 -41 2 -58 4 -37 2 20 2 54 0 75 -2 20 -4 3 -4 -38z"/>
<path d="M107 260 c-30 -27 -58 -46 -62 -42 -5 4 -5 2 -2 -4 4 -6 -2 -19 -13
-29 -14 -13 -20 -30 -18 -59 1 -40 1 -40 5 -6 3 28 20 51 81 113 86 87 92 103
9 27z"/>
</g>
</svg>
