<?xml version="1.0" standalone="no"?>
<!DOCTYPE svg PUBLIC "-//W3C//DTD SVG 20010904//EN"
 "http://www.w3.org/TR/2001/REC-SVG-20010904/DTD/svg10.dtd">
<svg version="1.0" xmlns="http://www.w3.org/2000/svg"
 width="412.000000pt" height="1150.000000pt" viewBox="0 0 412.000000 1150.000000"
 preserveAspectRatio="xMidYMid meet">

<g transform="translate(0.000000,1150.000000) scale(0.100000,-0.100000)"
fill="#000000" stroke="none">
<path d="M15 11470 c-28 -31 -8 -37 23 -7 19 20 22 27 11 27 -9 0 -24 -9 -34
-20z"/>
<path d="M210 11467 c0 -15 -33 -56 -105 -127 -58 -58 -105 -109 -105 -115 0
-5 96 -105 212 -222 l213 -213 -48 -47 -47 -48 -165 165 c-91 91 -165 160
-165 154 0 -6 71 -81 157 -167 l158 -157 -47 -47 -48 -48 -105 105 c-57 57
-108 100 -112 96 -4 -4 13 -27 39 -51 27 -24 48 -47 48 -51 0 -5 -21 -30 -47
-56 -62 -63 -48 -73 17 -12 l51 48 47 -47 47 -47 -103 -103 c-56 -56 -102
-107 -102 -112 0 -6 49 -60 110 -120 l110 -110 0 -87 c0 -49 -3 -88 -8 -88 -4
0 -52 45 -107 100 -54 54 -101 97 -104 95 -2 -3 46 -56 107 -119 l112 -113 0
-86 c0 -48 -3 -87 -7 -87 -4 0 -51 43 -105 97 -54 53 -101 93 -105 89 -4 -3
17 -30 46 -60 l52 -53 -50 -46 c-28 -25 -51 -51 -51 -58 0 -7 24 10 53 39 l52
51 50 -44 50 -44 -103 -103 c-56 -57 -102 -108 -102 -113 0 -6 49 -60 110
-120 l110 -110 108 108 108 107 47 -48 47 -47 -155 -155 -155 -155 -110 110
c-60 60 -110 104 -110 98 0 -7 23 -33 50 -59 l51 -48 -52 -53 c-29 -29 -50
-56 -46 -60 4 -4 30 15 57 42 l50 49 47 -47 48 -47 -105 -105 c-57 -57 -102
-107 -99 -109 3 -3 47 37 99 89 52 52 98 95 102 95 5 0 8 -42 8 -93 l0 -92
-105 -105 c-58 -58 -105 -107 -105 -110 0 -3 96 -101 213 -218 l212 -212 -47
-47 -47 -47 -103 99 c-57 54 -130 125 -162 157 -33 31 -62 55 -65 52 -3 -2 66
-76 153 -163 l159 -159 -21 -27 c-11 -14 -33 -36 -47 -47 l-27 -21 -104 104
c-57 56 -107 100 -111 96 -4 -4 15 -30 42 -57 l49 -50 -49 -50 c-64 -65 -52
-76 15 -14 l51 48 47 -47 47 -48 -102 -101 c-57 -55 -103 -106 -103 -112 0 -6
49 -61 110 -121 l110 -110 0 -81 c0 -44 -3 -84 -7 -88 -4 -4 -53 40 -110 96
-57 56 -103 98 -103 92 0 -6 50 -60 110 -119 l110 -109 0 -88 c0 -48 -3 -88
-7 -88 -4 0 -51 44 -105 97 -54 53 -101 94 -105 90 -4 -4 15 -30 42 -57 l49
-50 -49 -50 c-27 -27 -46 -53 -42 -57 4 -4 30 15 57 42 l50 49 47 -47 48 -47
-103 -103 c-56 -56 -102 -107 -102 -112 0 -6 49 -60 110 -120 l110 -110 110
110 110 109 40 -39 c22 -21 40 -44 40 -50 0 -13 -292 -305 -305 -305 -5 0 -56
46 -112 102 -57 57 -103 97 -103 91 0 -6 23 -33 51 -60 l51 -49 -51 -47 c-28
-26 -51 -53 -51 -60 0 -6 24 12 53 41 l53 52 49 -51 50 -50 -103 -100 c-56
-55 -102 -106 -102 -112 0 -6 44 32 98 86 53 53 101 97 105 97 4 0 7 -42 7
-93 l0 -93 -105 -104 c-58 -56 -105 -106 -105 -109 0 -3 95 -101 212 -218
l211 -212 -27 -35 c-56 -74 -51 -76 -227 100 -87 87 -162 155 -166 151 -4 -4
65 -80 152 -167 l160 -160 -48 -47 -47 -48 -110 110 c-60 60 -110 105 -110 99
0 -5 18 -28 40 -49 22 -21 40 -44 40 -50 0 -6 -18 -29 -40 -50 -22 -21 -40
-44 -40 -49 0 -6 19 9 43 32 23 23 47 42 53 42 5 0 30 -20 54 -45 l43 -44 -96
-99 c-57 -57 -97 -106 -97 -118 0 -11 46 -64 105 -124 l105 -105 0 -81 c0 -44
-3 -84 -7 -88 -4 -4 -51 37 -105 91 -54 54 -98 93 -98 88 0 -5 47 -57 105
-115 l105 -107 0 -87 c0 -47 -3 -86 -7 -86 -4 0 -52 44 -105 97 -54 54 -98 91
-98 83 0 -8 19 -34 42 -57 l42 -43 -42 -43 c-23 -23 -42 -49 -42 -57 0 -8 23
8 50 35 l50 49 47 -47 48 -47 -98 -98 c-58 -58 -97 -105 -97 -117 0 -23 202
-230 213 -218 4 4 -39 53 -95 110 l-103 103 48 47 47 48 55 -55 55 -54 56 54
55 55 89 -95 c49 -52 89 -99 90 -104 0 -5 -68 -77 -150 -160 l-151 -150 -104
104 c-58 58 -105 100 -105 94 0 -5 18 -28 40 -49 22 -21 40 -44 40 -50 0 -6
-18 -29 -40 -50 -22 -21 -40 -44 -40 -49 0 -6 22 11 48 37 l48 47 49 -50 49
-50 -99 -100 c-54 -55 -97 -102 -94 -104 3 -3 45 35 94 84 49 50 93 90 97 90
5 0 8 -41 8 -91 l0 -92 -100 -102 c-55 -55 -100 -108 -100 -115 0 -8 93 -108
207 -222 l207 -208 -44 -45 c-24 -25 -49 -45 -55 -45 -6 0 -77 67 -160 150
-82 82 -151 147 -154 144 -3 -2 64 -74 149 -159 l153 -154 -27 -35 c-54 -71
-56 -70 -172 45 -57 57 -104 97 -104 89 0 -8 19 -34 42 -57 l42 -43 -42 -43
c-23 -23 -42 -49 -42 -57 0 -8 23 8 50 35 l50 49 47 -47 48 -47 -98 -98 c-58
-58 -97 -105 -97 -117 0 -12 42 -62 105 -125 l105 -105 0 -87 c0 -49 -3 -88
-7 -88 -4 0 -52 44 -105 97 -54 54 -98 93 -98 88 0 -6 47 -57 105 -115 l105
-105 0 -87 c0 -49 -3 -88 -7 -88 -4 0 -52 44 -105 97 -54 54 -98 91 -98 82 0
-8 18 -33 40 -54 22 -21 40 -43 40 -49 0 -5 -18 -24 -40 -43 -22 -19 -40 -42
-40 -51 0 -11 16 -1 47 30 l48 47 48 -46 49 -46 -96 -96 c-57 -57 -96 -104
-96 -116 0 -12 42 -62 105 -125 l105 -105 108 108 108 107 44 -45 44 -45 -154
-155 -155 -155 -102 102 c-57 57 -103 98 -103 92 0 -5 20 -30 45 -54 l45 -44
-47 -48 c-26 -26 -44 -51 -40 -55 4 -4 28 13 52 37 l45 44 47 -47 48 -47 -100
-100 c-54 -54 -97 -102 -94 -104 3 -3 45 35 94 84 49 50 93 90 97 90 5 0 8
-42 8 -93 l0 -92 -100 -100 c-60 -60 -100 -108 -100 -120 0 -13 75 -95 207
-227 l208 -208 -48 -47 -47 -48 -160 160 c-88 88 -160 155 -160 150 0 -5 69
-78 152 -162 l153 -153 -48 -47 -47 -48 -100 100 c-54 54 -103 96 -107 92 -4
-4 12 -27 35 -50 23 -24 42 -47 42 -51 0 -5 -18 -24 -40 -43 -22 -19 -40 -42
-40 -51 0 -11 16 0 48 31 l48 47 47 -48 47 -48 -95 -94 c-52 -52 -95 -101 -95
-109 0 -9 21 6 50 34 l50 49 48 -47 c47 -46 72 -58 72 -35 0 7 -19 32 -42 55
l-42 43 38 39 c45 46 61 45 111 -10 30 -33 35 -47 37 -92 1 -43 2 -45 5 -14 5
47 22 47 62 2 17 -19 36 -35 43 -35 7 0 -36 48 -95 108 l-107 108 48 47 47 47
155 -155 c85 -85 160 -155 166 -155 6 0 77 68 159 150 82 83 154 150 160 150
6 0 31 -20 55 -45 l44 -45 -104 -105 c-58 -58 -100 -105 -95 -105 5 0 31 21
57 47 l48 47 48 -47 c26 -26 53 -47 60 -47 23 0 12 25 -33 70 l-45 46 38 37
c33 33 42 36 63 28 14 -5 40 -25 57 -45 27 -30 32 -46 34 -89 l1 -52 6 45 6
45 46 -42 c89 -83 62 -42 -41 62 -116 117 -115 113 -46 169 l37 30 152 -152
c84 -84 157 -152 162 -152 5 0 81 71 167 157 l158 158 47 -48 48 -47 -105
-105 c-57 -57 -101 -108 -97 -112 4 -4 30 15 57 42 l50 49 48 -47 c45 -45 72
-59 72 -38 0 6 -21 30 -47 55 l-48 45 39 40 c21 22 47 39 58 38 11 -1 37 -21
59 -44 34 -37 39 -49 41 -95 1 -43 2 -46 5 -15 5 46 20 47 63 2 19 -19 39 -35
44 -35 6 0 -35 46 -92 103 -56 56 -102 107 -102 113 0 13 72 84 86 84 5 0 77
-67 159 -150 82 -82 154 -150 160 -150 5 0 81 71 167 157 l158 158 47 -48 48
-47 -105 -105 c-57 -57 -101 -108 -97 -112 4 -4 30 15 57 42 l50 49 48 -47
c72 -71 82 -66 82 43 0 50 4 90 9 90 5 0 25 -18 45 -40 31 -35 36 -47 36 -90
0 -58 17 -68 22 -13 l3 38 43 -39 c82 -75 51 -29 -48 69 -55 55 -100 104 -100
110 0 6 19 30 43 53 l42 42 155 -155 c85 -85 159 -155 165 -155 5 0 80 70 165
155 l155 155 48 -48 48 -49 -101 -106 c-102 -107 -129 -149 -38 -60 l48 47 48
-47 c73 -72 82 -67 82 50 l0 97 45 -44 c42 -41 45 -48 45 -97 0 -29 5 -53 10
-53 6 0 10 19 10 42 l0 42 45 -44 c24 -24 47 -42 49 -39 3 3 -40 50 -94 104
-55 55 -100 104 -100 110 0 6 21 31 46 55 l45 45 150 -154 c82 -85 149 -148
149 -140 0 8 -64 78 -142 156 l-143 143 48 47 47 48 95 -95 c52 -52 95 -88 95
-79 0 8 -38 50 -85 93 -47 42 -85 83 -85 90 0 6 20 32 45 56 l45 44 40 -39
c50 -49 53 -34 3 17 l-37 38 37 38 c52 53 47 76 -6 24 l-42 -42 -208 208 -207
208 45 44 45 44 205 -204 c113 -113 205 -201 205 -195 0 5 -18 28 -40 50 l-40
41 2 419 3 419 38 -33 c48 -43 48 -28 0 21 l-37 38 37 38 c50 51 47 66 -3 17
l-40 -39 -48 47 -47 47 88 88 c48 48 87 92 87 97 0 5 -42 -32 -93 -83 l-93
-92 -49 50 -49 50 142 143 c78 78 142 147 142 152 0 5 -66 -57 -148 -138
l-147 -147 -48 48 -47 47 195 195 c107 107 195 199 195 204 0 5 -39 -28 -87
-75 l-88 -84 -3 179 c-1 98 0 181 3 184 3 3 44 -32 90 -78 47 -47 85 -80 85
-75 0 6 -88 98 -195 205 l-195 195 47 47 48 48 147 -147 c82 -81 148 -143 148
-138 0 5 -63 73 -140 150 -77 78 -140 146 -140 151 0 5 20 30 45 54 l45 44 95
-94 c52 -52 95 -90 95 -85 0 5 -39 49 -87 97 l-88 88 47 47 48 47 40 -39 c25
-24 40 -33 40 -24 0 8 -16 30 -35 49 l-35 34 35 36 c51 52 43 72 -8 22 l-42
-42 -210 210 -210 210 47 47 47 46 208 -204 c114 -112 188 -183 165 -157 l-42
48 0 422 0 422 35 -34 c47 -45 58 -30 13 18 l-36 37 34 39 c48 56 42 68 -9 18
l-43 -42 -47 48 -47 48 90 89 c50 49 90 94 90 100 0 5 -42 -32 -93 -83 l-93
-92 -47 48 -47 47 140 140 c77 77 140 146 140 155 0 8 -66 -52 -148 -133
l-147 -147 -48 48 -47 47 195 195 c107 107 195 199 195 205 0 5 -37 -27 -83
-73 -45 -45 -86 -82 -90 -82 -4 0 -7 84 -7 187 l0 188 90 -90 c50 -49 90 -85
90 -80 0 6 -88 98 -195 205 -107 107 -195 198 -195 203 0 4 19 28 42 53 l42
45 153 -153 c84 -84 153 -146 153 -138 0 9 -63 78 -140 155 l-140 140 47 47
47 48 93 -92 c51 -51 93 -87 93 -80 0 7 -39 51 -87 97 l-88 83 45 46 c24 25
49 46 54 46 6 0 27 -17 48 -37 50 -49 49 -34 -2 21 l-39 43 39 38 c54 52 53
78 -5 135 l-45 44 0 418 c0 230 3 418 7 418 4 0 24 -17 45 -37 21 -20 38 -33
38 -27 0 6 -16 25 -35 44 -19 19 -35 39 -35 45 0 6 16 26 35 45 48 47 44 61
-5 16 -22 -20 -43 -36 -47 -36 -4 0 -27 19 -50 42 l-43 42 92 93 c51 51 89 96
85 100 -4 4 -49 -34 -100 -85 l-93 -92 -47 48 -47 47 145 145 c80 80 145 149
145 155 0 5 -67 -58 -150 -140 l-150 -149 -45 44 c-25 24 -45 49 -45 55 0 5
88 98 195 205 107 107 195 199 195 205 0 5 -39 -30 -88 -78 -48 -48 -91 -87
-95 -87 -4 0 -7 81 -7 180 0 99 3 180 7 180 4 0 47 -39 95 -87 49 -48 88 -83
88 -78 0 6 -90 100 -200 210 l-200 200 47 47 48 48 152 -152 c84 -84 153 -146
153 -139 0 8 -65 80 -145 161 l-145 146 48 47 48 47 94 -95 c52 -52 96 -92 99
-89 3 2 -37 47 -89 99 l-95 95 48 47 47 47 45 -44 c54 -53 61 -32 8 22 l-37
38 37 38 c51 52 49 80 -8 141 l-45 48 2 417 3 417 43 -36 c51 -44 56 -33 7 15
-19 19 -35 39 -35 45 0 6 16 26 35 45 19 19 35 38 35 44 0 6 -20 -10 -45 -34
l-45 -44 -47 47 -48 47 93 93 c50 51 92 99 92 107 0 8 -44 -29 -98 -83 l-98
-97 -47 48 -47 47 145 145 c80 80 145 149 145 155 0 5 -67 -58 -150 -140
l-150 -149 -45 44 c-25 24 -45 49 -45 55 0 5 88 98 195 205 107 107 195 199
195 205 0 5 -39 -30 -88 -78 -48 -48 -91 -87 -95 -87 -4 0 -7 81 -7 180 0 99
3 180 7 180 4 0 47 -39 95 -87 49 -48 88 -83 88 -78 0 6 -88 98 -195 205 -107
107 -195 199 -195 205 0 5 19 29 42 52 l42 43 148 -147 c81 -81 151 -144 155
-140 4 4 -59 74 -140 155 l-147 147 48 48 48 47 94 -95 c52 -52 96 -92 99 -89
3 2 -37 47 -89 99 l-95 95 47 47 47 46 41 -37 c54 -48 66 -38 15 14 l-38 39
36 45 c49 59 48 83 -8 135 l-45 42 0 185 c0 116 -4 184 -10 184 -6 0 -10 -63
-10 -170 0 -93 -4 -170 -9 -170 -5 0 -25 18 -45 40 l-36 40 -2 133 -2 132 -3
-117 c-2 -65 -7 -118 -11 -118 -4 0 -26 17 -50 39 l-42 39 -2 78 c-2 77 -2 77
-5 17 -3 -42 -8 -63 -17 -63 -18 0 -63 50 -80 90 -13 31 -15 32 -16 11 0 -19
-52 -77 -202 -227 -111 -112 -205 -201 -210 -198 -12 8 -10 152 3 177 6 12 66
77 132 145 67 67 117 122 112 122 -6 0 -62 -52 -125 -115 -78 -78 -117 -111
-122 -102 -4 6 -8 44 -8 83 0 56 4 77 20 97 26 32 25 35 -5 35 l-25 0 0 -231
0 -231 -50 49 -50 49 0 183 c0 115 -4 183 -10 183 -6 0 -10 -63 -10 -170 l0
-171 -31 23 c-50 37 -59 65 -61 200 l-2 123 -3 -117 c-2 -65 -7 -118 -11 -118
-4 0 -25 17 -45 38 -36 37 -37 40 -37 115 0 45 -4 77 -10 77 -6 0 -10 -29 -10
-67 l0 -67 -45 44 c-27 27 -45 53 -45 67 0 13 -4 23 -10 23 -5 0 -10 -10 -10
-23 0 -32 -404 -436 -414 -412 -10 28 -7 145 5 168 7 12 66 74 133 138 66 64
117 120 113 125 -4 4 -61 -45 -125 -109 -65 -65 -121 -115 -125 -111 -4 4 -7
42 -7 85 0 68 3 81 24 107 l25 29 -29 0 -30 0 -2 -231 -3 -231 -47 48 -48 47
0 185 c0 117 -4 185 -10 185 -6 0 -10 -64 -10 -172 l0 -173 -45 47 -45 47 -2
128 -2 128 -3 -117 c-2 -65 -7 -118 -11 -118 -4 0 -25 17 -45 38 -36 36 -37
40 -37 109 0 40 -4 75 -10 78 -6 4 -10 -19 -10 -61 l0 -68 -45 44 c-27 27 -45
53 -45 67 0 32 -16 29 -23 -4 -4 -19 -72 -94 -206 -228 l-201 -200 0 95 0 95
127 127 c70 70 124 131 120 135 -4 4 -62 -47 -127 -112 l-120 -120 0 95 c0 82
3 97 21 116 l21 23 -31 -1 -31 -1 0 -224 c0 -122 -4 -223 -8 -223 -4 0 -27 19
-50 43 l-42 43 0 182 c0 115 -4 182 -10 182 -6 0 -10 -64 -10 -172 l0 -172
-45 44 -45 44 -2 131 -2 130 -3 -117 c-2 -65 -7 -118 -11 -118 -4 0 -25 17
-45 38 -36 37 -37 40 -37 115 0 45 -4 77 -10 77 -6 0 -10 -29 -10 -67 l0 -67
-45 44 c-27 27 -45 53 -45 67 0 13 -4 23 -10 23 -5 0 -10 -10 -10 -23 0 -16
-59 -81 -205 -227 l-205 -205 0 95 0 95 132 132 c73 73 126 133 118 133 -8 0
-68 -53 -132 -117 l-118 -118 0 95 c0 80 3 97 20 115 l20 22 -30 0 -30 0 0
-231 0 -230 -50 49 -50 49 -2 186 -2 185 -3 -172 c-2 -95 -7 -173 -12 -173 -5
0 -27 20 -50 45 l-41 45 -2 127 -2 128 -3 -117 c-2 -65 -7 -118 -11 -118 -4 0
-25 17 -45 38 -36 37 -37 40 -37 115 0 45 -4 77 -10 77 -6 0 -10 -27 -10 -60
0 -33 -4 -60 -8 -60 -17 0 -82 77 -82 98 0 12 -4 22 -10 22 -5 0 -10 -10 -10
-23z m217 -249 c112 -112 203 -208 203 -213 0 -6 -18 -29 -40 -50 l-40 -39
-210 209 -210 210 42 42 c23 24 45 43 47 43 3 0 97 -91 208 -202z m1035 -260
l-42 -43 -210 210 -210 210 42 42 43 43 210 -210 210 -210 -43 -42z m703 252
l210 -210 -43 -42 -42 -43 -212 212 -212 213 39 40 c21 22 42 40 45 40 3 0
100 -94 215 -210z m1040 -250 c-21 -22 -44 -40 -50 -40 -5 0 -102 92 -215 205
l-204 205 44 45 45 45 210 -210 209 -210 -39 -40z m705 255 l204 -205 -44 -45
-44 -45 -208 207 -208 208 42 42 c23 24 45 43 48 43 3 0 97 -92 210 -205z
m-2553 -362 l-47 -48 -210 210 -210 210 47 47 48 48 210 -210 210 -210 -48
-47z m1736 5 l-48 -48 -202 202 c-112 112 -203 207 -203 213 0 5 19 29 42 52
l42 43 208 -207 208 -208 -47 -47z m872 -8 l-45 -45 -211 211 -212 212 44 46
43 47 213 -213 213 -213 -45 -45z m-3642 252 l207 -208 -45 -44 -45 -44 -205
204 c-113 113 -205 209 -205 214 0 11 70 86 80 86 3 0 99 -93 213 -208z m1746
3 l206 -205 -48 -46 -48 -46 -111 108 c-61 59 -155 153 -209 209 l-98 101 42
42 c23 23 46 42 51 42 5 0 102 -92 215 -205z m-986 -113 l207 -208 -43 -42
-42 -42 -210 210 -209 209 20 23 c22 26 57 57 64 58 3 0 99 -93 213 -208z
m870 0 l207 -208 -43 -42 -42 -42 -210 210 -209 210 39 40 c21 22 42 40 45 40
3 0 99 -93 213 -208z m866 4 l205 -205 -35 -39 c-19 -22 -39 -41 -44 -41 -6
-1 -102 91 -215 204 l-204 205 39 40 c21 22 42 40 45 40 3 0 97 -92 209 -204z
m874 -4 l207 -208 -43 -42 -42 -42 -210 210 -209 210 39 40 c21 22 42 40 45
40 3 0 99 -93 213 -208z m-2716 -94 c112 -112 203 -208 203 -213 0 -6 -19 -30
-43 -53 l-42 -42 -210 210 -209 210 44 45 c24 25 47 45 49 45 3 0 97 -91 208
-202z m1028 -258 l-45 -45 -207 207 -208 208 45 45 44 45 208 -207 208 -208
-45 -45z m870 0 l-45 -45 -207 207 -208 208 45 45 44 45 208 -207 208 -208
-45 -45z m870 0 l-45 -45 -207 207 -208 208 45 45 44 45 208 -207 208 -208
-45 -45z m-1355 263 l0 -77 -39 38 -40 39 32 38 c18 21 35 39 40 39 4 0 7 -35
7 -77z m870 -4 c0 -38 -3 -69 -7 -69 -11 0 -73 63 -73 74 0 15 62 76 72 70 4
-3 8 -36 8 -75z m-2610 -6 l0 -78 -42 42 -42 43 34 35 c19 19 38 35 42 35 4 0
8 -35 8 -77z m70 42 l34 -35 -34 -35 c-19 -19 -38 -35 -42 -35 -4 0 -8 32 -8
70 0 39 4 70 8 70 4 0 23 -16 42 -35z m800 -35 c0 -38 -4 -70 -8 -70 -4 0 -23
16 -42 35 l-34 35 34 35 c19 19 38 35 42 35 4 0 8 -31 8 -70z m68 37 l32 -33
-40 -39 -40 -39 0 72 c0 40 4 72 8 72 4 0 22 -15 40 -33z m859 -74 l-37 -38 0
75 0 75 37 -38 38 -37 -38 -37z m873 72 l34 -35 -35 -36 c-34 -35 -34 -35 -41
-12 -9 34 -9 118 0 118 4 0 23 -16 42 -35z m-86 -116 c24 -28 26 -38 26 -121
l0 -90 -37 30 c-42 33 -153 147 -153 156 0 4 19 27 41 51 l41 45 28 -20 c16
-11 40 -34 54 -51z m-2625 16 l41 -45 0 -92 0 -93 -90 90 c-49 49 -90 94 -90
99 0 14 72 86 86 86 6 0 30 -20 53 -45z m195 8 c22 -20 43 -41 45 -46 4 -10
-158 -177 -171 -177 -5 0 -8 39 -8 87 l0 87 42 43 c23 24 44 43 46 43 3 0 23
-17 46 -37z m669 -11 l48 -49 -3 -89 -3 -89 -94 93 -95 92 44 45 c24 25 47 45
50 45 3 0 27 -22 53 -48z m212 8 l39 -40 -92 -93 -92 -92 0 90 0 89 42 43 c23
24 47 43 53 43 6 0 29 -18 50 -40z m661 -4 l44 -43 0 -87 c0 -47 -3 -86 -7
-86 -11 0 -173 163 -173 174 0 13 71 86 83 86 5 0 29 -20 53 -44z m204 -1 l45
-45 -93 -93 -92 -92 0 95 0 94 42 43 c23 24 45 43 48 43 3 0 26 -20 50 -45z
m868 2 l42 -43 -90 -89 c-101 -101 -105 -100 -98 15 3 67 5 72 48 115 24 25
47 45 50 45 3 0 25 -19 48 -43z m-2768 -349 c0 -49 -3 -88 -7 -88 -12 0 -283
273 -283 284 0 6 19 30 42 53 l42 43 103 -102 103 -103 0 -87z m870 1 c0 -47
-3 -88 -6 -91 -3 -4 -70 60 -149 140 l-144 147 47 48 46 47 103 -102 103 -103
0 -86z m302 185 c-6 -11 -70 -77 -144 -149 l-133 -130 -3 89 -3 90 103 103
103 103 43 -44 c37 -36 42 -47 34 -62z m568 -189 l0 -90 -147 147 -148 148 45
45 44 45 103 -102 103 -103 0 -90z m870 2 c0 -48 -4 -87 -8 -87 -11 0 -282
274 -282 285 0 5 19 29 42 53 l43 43 102 -104 103 -104 0 -86z m280 163 c-48
-61 -251 -251 -261 -244 -5 3 -9 42 -9 86 l0 81 102 104 102 103 48 -47 47
-46 -29 -37z m-2620 75 l44 -45 -139 -140 c-77 -77 -143 -140 -147 -140 -5 0
-8 39 -8 87 l0 88 97 97 c54 54 100 98 103 98 3 0 26 -20 50 -45z m1740 0 l44
-45 -144 -143 -145 -142 -3 89 -3 90 98 98 c54 54 100 98 103 98 3 0 26 -20
50 -45z m-2152 -217 l142 -145 0 -91 c0 -51 -3 -92 -8 -92 -11 0 -392 383
-392 395 0 5 19 28 42 52 31 31 45 40 57 33 9 -5 80 -73 159 -152z m522 117
l44 -45 -194 -195 c-107 -107 -198 -195 -202 -195 -5 0 -8 39 -8 87 l0 88 152
152 c84 84 155 153 158 153 3 0 26 -20 50 -45z m338 -108 l152 -153 0 -87 c0
-48 -3 -87 -8 -87 -4 0 -95 88 -202 195 l-194 195 44 45 c24 25 47 45 50 45 3
0 74 -69 158 -153z m530 110 l42 -42 -200 -200 -200 -200 0 90 0 90 152 152
c84 84 155 153 158 153 3 0 25 -19 48 -43z m350 -119 l142 -145 0 -94 0 -94
-202 202 -203 203 44 44 c33 34 48 43 60 36 9 -5 80 -73 159 -152z m359 -126
l-197 -197 0 90 0 90 152 152 153 153 45 -45 45 -45 -198 -198z m653 -110 c0
-45 -3 -82 -8 -82 -4 0 -95 88 -202 195 l-194 195 44 45 45 46 157 -159 158
-158 0 -82z m380 353 l44 -45 -199 -200 c-109 -109 -202 -197 -207 -194 -4 3
-8 42 -8 86 l0 82 157 158 c86 87 160 158 163 158 3 0 26 -20 50 -45z m-3420
-157 l0 -83 -42 42 -42 43 39 40 c21 22 40 40 42 40 2 0 3 -37 3 -82z m110
-320 l0 -314 -45 -44 -45 -44 0 404 0 405 45 -47 45 -47 0 -313z m760 320 l0
-82 -45 44 -45 44 37 38 c20 21 41 38 45 38 4 0 8 -37 8 -82z m110 -320 l-1
-313 -40 -42 c-22 -24 -42 -43 -44 -43 -3 0 -5 181 -5 403 l0 402 45 -47 45
-47 0 -313z m760 320 l0 -82 -45 44 -45 44 37 38 c20 21 41 38 45 38 4 0 8
-37 8 -82z m110 -318 l0 -316 -44 -43 -43 -42 -5 388 c-3 213 -3 394 0 401 3
9 19 -1 48 -29 l44 -43 0 -316z m760 314 c0 -41 -4 -74 -8 -74 -4 0 -26 18
-47 40 l-39 40 39 40 c21 21 42 37 47 34 4 -3 8 -39 8 -80z m110 -316 l0 -314
-45 -44 -45 -44 0 404 0 405 45 -47 45 -47 0 -313z m760 316 c0 -41 -4 -74 -8
-74 -4 0 -26 18 -47 40 l-39 40 39 40 c21 21 42 37 47 34 4 -3 8 -39 8 -80z
m110 -314 l0 -311 -45 -47 -45 -47 0 405 0 405 45 -47 45 -47 0 -311z m-3638
253 l48 -47 0 -88 c0 -48 -3 -88 -8 -88 -11 0 -182 174 -182 185 0 13 72 85
84 85 6 0 32 -21 58 -47z m870 0 l48 -47 0 -88 c0 -48 -3 -88 -8 -88 -11 0
-182 174 -182 185 0 13 72 85 84 85 6 0 32 -21 58 -47z m872 -3 l46 -49 0 -86
c0 -47 -3 -85 -8 -85 -11 0 -182 174 -182 185 0 10 80 84 91 85 4 0 27 -22 53
-50z m870 0 l46 -49 0 -86 c0 -64 -3 -85 -13 -85 -7 0 -53 41 -102 90 l-88 91
43 44 c24 25 49 45 56 45 6 0 32 -22 58 -50z m870 0 l46 -49 0 -86 c0 -62 -3
-85 -13 -85 -7 0 -53 40 -102 90 l-89 90 44 45 c24 25 49 45 56 45 6 0 32 -22
58 -50z m-3216 -243 l3 -202 -37 -48 c-20 -26 -41 -47 -45 -47 -5 0 -9 132 -9
292 l0 293 43 -43 42 -42 3 -203z m872 -7 l0 -201 -45 -47 -45 -47 0 295 0
295 45 -47 45 -47 0 -201z m860 0 l0 -216 -40 -39 -40 -39 0 294 0 294 40 -39
40 -39 0 -216z m870 0 l0 -216 -40 -39 -40 -39 0 294 0 294 40 -39 40 -39 0
-216z m870 -3 l0 -213 -40 -39 -40 -39 0 294 1 295 39 -42 40 -42 0 -214z
m-2923 91 l103 -103 0 -90 0 -90 -150 150 -150 149 42 43 c23 24 45 43 47 43
3 0 52 -46 108 -102z m871 -1 l102 -102 0 -88 c0 -48 -3 -87 -7 -87 -11 0
-293 283 -293 294 0 14 72 86 85 86 6 0 56 -46 113 -103z m870 0 l102 -102 0
-90 0 -90 -152 152 -152 153 39 40 c21 22 44 40 50 40 6 0 56 -46 113 -103z
m870 0 l102 -102 0 -88 c0 -48 -3 -87 -7 -87 -11 0 -293 283 -293 294 0 14 72
86 85 86 6 0 56 -46 113 -103z m-3045 -179 c-48 -49 -91 -88 -95 -88 -5 0 -8
82 -8 182 l0 183 95 -95 95 -95 -87 -87z m872 182 l90 -90 -90 -90 c-49 -49
-93 -90 -97 -90 -5 0 -8 81 -8 180 0 99 3 180 8 180 4 0 48 -40 97 -90z m880
-9 l80 -81 -90 -90 c-49 -50 -93 -90 -97 -90 -5 0 -8 81 -8 180 0 211 -9 205
115 81z m855 4 l85 -85 -93 -93 -92 -92 0 178 c0 97 3 177 8 177 4 0 46 -38
92 -85z m-2070 -397 c0 -56 -4 -88 -11 -88 -6 0 -99 88 -207 195 l-197 195 50
50 50 50 157 -157 158 -158 0 -87z m712 245 l158 -158 0 -87 c0 -64 -3 -88
-13 -88 -14 0 -397 380 -397 395 0 10 80 95 89 95 3 0 77 -71 163 -157z m881
-10 l147 -150 0 -86 c0 -48 -3 -87 -8 -87 -4 0 -97 90 -207 200 l-199 200 43
44 c33 34 48 43 60 36 9 -5 82 -76 164 -157z m870 0 l147 -150 0 -85 c0 -46
-3 -88 -7 -92 -4 -4 -98 84 -210 196 l-203 203 47 47 c35 35 50 45 62 38 9 -5
82 -76 164 -157z m-3008 -243 l-205 -205 -47 48 -48 47 205 205 205 205 47
-47 48 -48 -205 -205z m870 0 l-205 -205 -47 48 -48 47 205 205 205 205 47
-47 48 -48 -205 -205z m1895 264 c22 -20 40 -41 40 -48 0 -6 -91 -102 -203
-214 l-203 -202 -44 45 -44 45 204 205 c113 113 206 205 207 205 2 0 21 -16
43 -36z m-865 -14 l39 -40 -204 -205 -205 -205 -45 45 -45 45 200 200 c110
109 205 199 210 200 6 0 29 -18 50 -40z m-1795 -355 l-205 -205 -45 45 -45 45
205 205 205 205 45 -45 45 -45 -205 -205z m1032 258 c21 -20 38 -42 38 -48 0
-14 -279 -305 -354 -369 l-57 -49 -45 44 -44 43 207 208 c114 115 210 208 212
208 3 0 22 -17 43 -37z m708 -258 l-205 -205 -45 45 -45 45 205 205 205 205
45 -45 45 -45 -205 -205z m1032 258 c21 -20 38 -42 38 -47 0 -14 -392 -406
-405 -406 -6 0 -29 18 -50 40 l-39 40 204 205 c113 113 207 205 209 205 3 0
22 -17 43 -37z m-2500 -110 c21 -20 38 -42 38 -47 0 -14 -391 -406 -404 -406
-13 0 -86 71 -86 84 0 13 392 406 405 406 5 0 26 -17 47 -37z m866 -6 l42 -42
-205 -205 -205 -204 -40 39 c-22 21 -40 44 -40 49 0 11 390 406 400 406 3 0
25 -19 48 -43z m870 0 l42 -42 -203 -203 c-111 -111 -207 -202 -213 -202 -5 0
-28 18 -49 40 l-39 40 204 205 c113 113 207 205 210 205 3 0 25 -19 48 -43z
m877 3 l39 -40 -207 -207 -207 -208 -45 45 -45 44 202 203 c112 112 208 203
213 203 6 0 29 -18 50 -40z m-1614 -174 c-9 -12 -101 -104 -204 -206 l-187
-185 -48 48 -47 47 205 205 205 205 47 -47 c46 -45 46 -47 29 -67z m-893 61
l42 -42 -205 -205 -205 -204 -45 44 -45 44 202 203 c112 112 205 203 208 203
3 0 25 -19 48 -43z m1740 0 l42 -43 -200 -199 c-111 -110 -203 -202 -206 -204
-2 -3 -25 15 -49 39 l-45 44 202 203 c112 112 205 203 208 203 3 0 25 -19 48
-43z m870 0 l42 -42 -205 -205 -205 -204 -45 44 -45 44 202 203 c112 112 205
203 208 203 3 0 25 -19 48 -43z m-3373 -187 l-45 -45 -42 43 -42 42 44 45 44
45 43 -42 43 -42 -45 -46z m875 85 l44 -45 -44 -45 -44 -45 -48 47 -48 47 42
43 c23 24 45 43 48 43 3 0 26 -20 50 -45z m868 2 l42 -43 -45 -44 -45 -44 -45
44 -45 44 42 43 c23 24 45 43 48 43 3 0 25 -19 48 -43z m870 0 l42 -43 -48
-47 -48 -47 -44 45 -44 45 44 45 c24 25 47 45 50 45 3 0 25 -19 48 -43z m870
0 l42 -43 -45 -44 -45 -44 -40 39 c-22 21 -40 42 -40 45 0 10 71 90 79 90 4 0
26 -19 49 -43z m-2558 -252 l-100 -100 -95 95 c-52 52 -95 99 -95 104 0 13 71
86 84 86 6 0 32 -21 58 -47 l48 -48 52 53 53 52 47 -47 48 -48 -100 -100z
m960 100 c0 -6 -43 -53 -95 -105 l-95 -95 -97 98 -98 97 45 45 45 45 54 -47
53 -46 51 51 52 52 42 -42 c24 -23 43 -47 43 -53z m775 -95 l-100 -100 -92 92
c-51 51 -93 97 -93 103 0 6 18 29 40 50 l40 39 48 -47 c26 -26 52 -47 58 -47
5 0 32 23 59 50 l49 50 46 -45 45 -45 -100 -100z m-2753 133 l48 -47 48 47
c26 26 52 47 58 47 5 0 29 -19 52 -43 l42 -43 -100 -99 -100 -100 -97 97 -98
98 45 45 c24 25 46 45 49 45 3 0 27 -21 53 -47z m3473 -3 l49 -50 52 51 c60
59 74 59 124 2 l32 -36 -101 -101 -101 -101 -100 100 -100 99 42 43 c23 24 45
43 48 43 3 0 28 -23 55 -50z m-2285 -95 l45 -45 -158 -158 -157 -157 -152 152
-153 153 48 47 47 48 105 -105 105 -105 108 108 c59 59 109 107 112 107 3 0
26 -20 50 -45z m710 -60 l110 109 45 -44 45 -44 -152 -153 c-84 -84 -158 -153
-163 -153 -6 0 -75 68 -154 151 l-144 150 44 45 43 44 108 -107 108 -108 110
110z m868 -2 l108 107 47 -48 47 -47 -155 -155 -155 -155 -150 150 c-82 82
-150 154 -150 159 0 6 19 30 42 53 l42 43 108 -107 108 -108 108 108z m870 0
l108 107 44 -45 44 -45 -154 -155 -155 -155 -147 147 c-82 81 -148 152 -148
157 0 6 19 30 42 53 l42 43 108 -107 108 -108 108 108z m-2958 -97 c0 -12
-161 -176 -172 -176 -5 0 -8 39 -8 87 l0 87 47 48 47 48 43 -42 c24 -23 43
-47 43 -52z m870 -1 c0 -6 -40 -51 -90 -100 l-90 -90 0 95 0 94 47 48 47 48
43 -42 c24 -23 43 -47 43 -53z m870 0 c0 -16 -175 -187 -183 -179 -4 4 -7 43
-7 86 l0 79 52 55 52 55 43 -43 c24 -23 43 -47 43 -53z m785 -85 c-49 -49 -93
-90 -97 -90 -5 0 -8 38 -8 84 l0 84 52 51 53 51 45 -45 45 -45 -90 -90z
m-2767 127 l42 -43 0 -417 c0 -229 -4 -417 -8 -417 -4 0 -27 19 -50 43 l-42
43 0 417 c0 229 4 417 8 417 4 0 27 -19 50 -43z m870 0 l42 -43 0 -417 c0
-229 -4 -417 -8 -417 -4 0 -27 19 -50 43 l-42 43 0 417 c0 229 4 417 8 417 4
0 27 -19 50 -43z m870 0 l42 -43 0 -417 c0 -229 -4 -417 -8 -417 -4 0 -26 18
-47 40 l-40 41 -3 419 c-1 231 1 420 6 420 4 0 27 -19 50 -43z m870 0 l42 -43
0 -424 0 -425 -50 52 -50 52 0 415 c0 229 4 416 8 416 4 0 27 -19 50 -43z
m-2686 -204 c3 -131 2 -312 -1 -402 l-6 -164 -42 46 -43 47 0 305 c0 207 4
313 11 328 13 25 60 77 69 77 4 0 9 -107 12 -237z m868 -165 l0 -403 -45 47
-45 47 0 313 0 312 42 43 c23 24 43 43 45 43 2 0 3 -181 3 -402z m870 0 l0
-402 -45 44 -45 44 0 318 0 318 36 40 c20 22 40 40 45 40 5 0 9 -176 9 -402z
m870 0 l0 -402 -45 44 -45 44 0 318 0 318 36 40 c20 22 40 40 45 40 5 0 9
-176 9 -402z m870 0 l0 -402 -45 44 -45 44 0 318 0 318 36 40 c20 22 40 40 45
40 5 0 9 -176 9 -402z m-3185 82 c-77 -77 -143 -140 -147 -140 -5 0 -8 37 -8
82 l0 83 102 102 103 103 45 -45 45 -45 -140 -140z m965 192 c22 -22 40 -44
40 -51 0 -13 -268 -291 -282 -291 -4 0 -8 42 -8 92 l0 93 97 97 c54 54 101 98
105 98 4 0 25 -17 48 -38z m868 -5 l42 -43 -145 -144 -145 -145 0 90 0 90 97
97 c54 54 100 98 103 98 3 0 25 -19 48 -43z m870 0 c23 -23 42 -47 42 -53 0
-5 -63 -72 -140 -149 -160 -159 -163 -160 -158 -33 l3 78 100 100 c55 55 102
100 105 100 3 0 25 -19 48 -43z m380 -307 c0 -74 -3 -162 -7 -194 l-6 -59 -42
46 -43 47 0 205 0 205 43 47 42 46 6 -104 c4 -57 7 -165 7 -239z m-3478 50 c0
-140 -3 -265 -6 -278 -7 -23 -7 -23 -45 14 l-39 38 0 215 0 215 37 38 c26 27
39 34 45 25 4 -6 8 -127 8 -267z m870 -10 c0 -159 -3 -290 -7 -290 -4 0 -24
17 -45 37 l-38 37 0 216 0 215 31 38 c58 71 59 68 59 -253z m870 6 c0 -157 -4
-287 -9 -290 -5 -3 -28 15 -51 40 l-41 45 3 209 3 209 34 35 c62 64 61 66 61
-248z m860 -8 l0 -292 -40 39 -40 39 0 220 0 220 32 33 c18 18 36 33 40 33 4
0 8 -131 8 -292z m-2003 160 l41 -43 -193 -197 c-106 -109 -196 -198 -199
-198 -3 0 -6 39 -6 87 l0 88 152 152 c84 84 155 153 158 153 3 0 24 -19 47
-42z m873 -3 l44 -45 -194 -195 c-107 -107 -198 -195 -202 -195 -5 0 -8 39 -8
87 l0 88 152 152 c84 84 155 153 158 153 3 0 26 -20 50 -45z m868 2 l42 -42
-200 -200 -200 -200 0 90 0 90 152 152 c84 84 155 153 158 153 3 0 25 -19 48
-43z m872 -2 l44 -45 -199 -200 c-159 -160 -201 -196 -208 -184 -5 9 -7 52 -5
96 l3 81 155 148 c85 82 157 149 160 149 3 0 26 -20 50 -45z m-3325 -333 c-3
-3 -23 12 -45 33 l-40 39 0 108 0 109 43 39 42 39 3 -181 c1 -99 0 -183 -3
-186z m870 0 c-3 -3 -23 12 -45 33 l-40 39 0 106 0 106 43 44 42 44 3 -183 c1
-101 0 -186 -3 -189z m875 177 c0 -98 -3 -179 -7 -179 -4 0 -24 17 -45 37
l-38 37 0 106 0 106 36 42 c20 23 40 40 45 36 5 -3 9 -86 9 -185z m870 6 c0
-102 -3 -185 -7 -185 -4 0 -24 17 -45 37 l-38 37 0 110 0 110 37 38 c20 21 41
38 45 38 4 0 8 -83 8 -185z m870 0 c0 -102 -3 -185 -7 -185 -4 0 -24 17 -45
37 l-38 37 0 110 0 110 37 38 c20 21 41 38 45 38 4 0 8 -83 8 -185z m-2720
-17 l0 -93 -197 -197 c-109 -109 -201 -198 -205 -198 -5 0 -8 41 -8 92 l0 92
197 198 c109 109 201 198 205 198 4 0 8 -42 8 -92z m870 0 l0 -92 -205 -206
-205 -205 0 100 0 101 198 197 c109 108 201 197 205 197 4 0 7 -41 7 -92z
m870 -1 l0 -92 -205 -205 -205 -205 0 100 0 100 197 197 c109 109 201 198 205
198 5 0 8 -42 8 -93z m870 0 l0 -92 -203 -203 c-112 -111 -206 -200 -210 -196
-4 4 -7 46 -7 93 l0 85 202 203 c111 112 206 203 210 203 4 0 8 -42 8 -93z
m-3263 -319 c112 -112 203 -207 203 -212 0 -14 -72 -86 -86 -86 -6 0 -103 93
-214 206 l-201 207 42 43 c24 24 46 44 48 44 3 0 97 -91 208 -202z m785 91
c63 -58 153 -150 202 -203 l89 -97 -44 -45 -43 -44 -208 207 -208 208 42 42
c23 24 46 42 50 41 4 -2 58 -51 120 -109z m958 -94 l204 -205 -44 -45 -44 -45
-208 207 -208 208 42 42 c23 24 45 43 48 43 3 0 97 -92 210 -205z m870 0 l204
-205 -44 -45 -44 -45 -208 207 -208 208 42 42 c23 24 45 43 48 43 3 0 97 -92
210 -205z m870 0 l204 -205 -44 -45 -44 -45 -208 207 -208 208 42 42 c23 24
45 43 48 43 3 0 97 -92 210 -205z m-2550 -360 c-25 -25 -50 -44 -56 -43 -7 2
-102 96 -212 209 l-201 206 47 46 47 47 210 -210 210 -210 -45 -45z m2605 -5
l-45 -44 -107 104 c-60 58 -155 153 -213 213 l-104 107 44 45 44 45 213 -212
213 -213 -45 -45z m-3646 256 l204 -204 -39 -46 -39 -46 -210 210 -209 210 39
40 c21 22 42 40 45 40 3 0 97 -92 209 -204z m1741 -1 l205 -205 -43 -42 -42
-43 -207 207 -207 208 39 40 c21 22 42 40 45 40 3 0 97 -92 210 -205z m870 0
l205 -205 -42 -42 -41 -41 -211 204 -211 203 42 43 c23 24 45 43 48 43 3 0 97
-92 210 -205z m-977 -103 l207 -208 -45 -44 -45 -44 -205 204 c-113 113 -205
209 -205 214 0 11 70 86 80 86 3 0 99 -93 213 -208z m-865 -5 l202 -203 -45
-44 -45 -45 -207 208 -207 207 39 40 c21 22 44 40 50 40 5 0 101 -91 213 -203z
m1734 6 c109 -109 198 -203 198 -208 0 -6 -18 -28 -40 -50 -39 -38 -40 -38
-62 -20 -51 42 -388 380 -388 389 0 14 71 86 84 86 6 0 100 -89 208 -197z
m790 70 c68 -67 159 -158 203 -202 l79 -81 -39 -40 c-21 -22 -44 -40 -49 -40
-6 0 -102 91 -213 202 l-203 203 42 42 c23 24 46 42 50 41 4 -2 62 -58 130
-125z m-2470 -432 c-22 -22 -44 -41 -48 -41 -5 0 -101 92 -214 205 l-204 205
44 45 45 45 208 -209 209 -208 -40 -42z m863 -1 l-45 -45 -207 207 -208 208
45 45 44 45 208 -207 208 -208 -45 -45z m708 252 l207 -208 -45 -44 -45 -44
-205 204 c-113 113 -205 209 -205 214 0 11 70 86 80 86 3 0 99 -93 213 -208z
m1032 -252 l-45 -45 -207 207 -208 208 45 45 44 45 208 -207 208 -208 -45 -45z
m-3027 233 c-18 -18 -36 -33 -40 -33 -4 0 -8 32 -8 72 l0 72 40 -39 40 -39
-32 -33z m802 32 c0 -41 -3 -75 -7 -75 -11 0 -73 63 -73 74 0 12 61 76 72 76
4 0 8 -34 8 -75z m63 37 l37 -38 -40 -39 -40 -39 0 77 c0 42 1 77 3 77 2 0 20
-17 40 -38z m807 -39 l0 -78 -42 42 -42 43 34 35 c19 19 38 35 42 35 4 0 8
-35 8 -77z m63 -36 l-38 -38 -7 38 c-4 21 -5 55 -2 77 l6 38 39 -38 39 -38
-37 -39z m802 -35 c-3 -3 -22 11 -43 31 l-36 37 39 40 40 41 3 -72 c2 -39 0
-74 -3 -77z m95 73 c0 -6 -15 -26 -34 -44 l-33 -32 -6 38 c-4 21 -4 55 0 76
l6 38 33 -32 c19 -18 34 -38 34 -44z m-2700 -5 c0 -38 -4 -70 -8 -70 -4 0 -23
16 -42 35 l-34 35 34 35 c19 19 38 35 42 35 4 0 8 -31 8 -70z m0 -194 c0 -47
-3 -86 -8 -86 -7 0 -119 112 -157 158 -19 23 -19 23 26 68 l44 45 48 -50 47
-50 0 -85z m112 2 l-92 -93 0 90 0 89 47 48 47 48 46 -45 45 -45 -93 -92z
m758 -2 c0 -47 -3 -86 -7 -86 -4 0 -47 39 -95 87 l-88 87 48 49 47 48 48 -50
47 -50 0 -85z m112 2 l-92 -93 0 90 0 89 47 48 47 48 46 -45 45 -45 -93 -92z
m758 -2 c0 -47 -3 -86 -7 -86 -11 0 -173 163 -173 174 0 6 19 30 43 54 l42 43
48 -50 47 -50 0 -85z m112 2 l-92 -93 0 90 0 89 47 48 47 48 46 -45 45 -45
-93 -92z m758 0 c0 -48 -4 -88 -9 -88 -5 0 -46 41 -91 91 l-83 90 44 45 43 44
48 -47 48 -47 0 -88z m157 130 l43 -42 -87 -88 c-48 -48 -91 -88 -95 -88 -5 0
-8 36 -8 80 l0 81 46 49 c26 28 49 50 52 50 4 0 26 -19 49 -42z m-2769 -353
l-3 -90 -142 140 c-79 76 -143 144 -143 149 0 6 19 30 42 53 l43 43 103 -103
103 -103 -3 -89z m169 57 l-147 -147 0 94 0 95 103 97 102 98 45 -45 45 -44
-148 -148z m703 -57 l0 -90 -147 147 -148 148 45 45 44 45 103 -102 103 -103
0 -90z m270 250 l43 -44 -35 -43 c-20 -24 -86 -90 -147 -147 l-111 -103 0 93
0 94 97 97 c54 54 100 98 103 98 3 0 25 -20 50 -45z m598 -250 l-3 -90 -148
145 -147 144 47 48 48 48 103 -103 103 -103 -3 -89z m272 249 l42 -46 -143
-144 -144 -144 -3 92 -3 92 98 98 c54 54 101 98 104 98 4 0 26 -21 49 -46z
m600 -246 c0 -49 -3 -88 -7 -88 -4 0 -72 64 -150 142 l-143 143 47 47 47 48
103 -102 103 -103 0 -87z m270 247 l44 -45 -144 -145 c-163 -163 -165 -163
-158 -39 l3 74 100 100 c55 55 102 100 105 100 3 0 26 -20 50 -45z m-3032
-218 l152 -153 0 -87 c0 -48 -3 -87 -8 -87 -4 0 -95 88 -202 195 l-194 195 44
45 c24 25 47 45 50 45 3 0 74 -69 158 -153z m532 108 l44 -45 -194 -195 c-107
-107 -198 -195 -202 -195 -5 0 -8 39 -8 87 l0 88 152 152 c84 84 155 153 158
153 3 0 26 -20 50 -45z m338 -108 l152 -153 0 -87 c0 -48 -3 -87 -7 -87 -5 0
-96 88 -203 195 l-195 195 45 45 c24 25 47 45 50 45 3 0 74 -69 158 -153z
m530 110 l42 -42 -198 -198 -197 -198 -3 88 -3 87 153 153 c84 84 155 153 158
153 3 0 25 -19 48 -43z m340 -110 l152 -153 0 -87 c0 -48 -3 -87 -8 -87 -4 0
-95 88 -202 195 l-194 195 44 45 c24 25 47 45 50 45 3 0 74 -69 158 -153z
m530 110 l42 -42 -198 -198 c-109 -109 -201 -195 -205 -191 -4 4 -7 41 -7 82
l0 76 157 158 c86 87 160 158 163 158 3 0 25 -19 48 -43z m340 -110 l152 -153
0 -87 c0 -48 -3 -87 -8 -87 -4 0 -95 88 -202 195 l-194 195 44 45 c24 25 47
45 50 45 3 0 74 -69 158 -153z m524 116 c21 -20 38 -42 38 -48 0 -5 -87 -98
-194 -204 -187 -187 -195 -193 -202 -167 -3 15 -4 54 -2 87 l4 60 155 155 c84
85 156 154 158 154 3 0 22 -17 43 -37z m-1672 -159 c0 -41 -3 -74 -7 -74 -4 0
-24 16 -44 36 l-38 37 36 43 c20 24 40 41 45 38 4 -3 8 -39 8 -80z m1740 0 c0
-41 -4 -74 -8 -74 -4 0 -26 18 -47 40 l-39 40 39 40 c21 21 42 37 47 34 4 -3
8 -39 8 -80z m-3480 -6 l0 -82 -40 39 c-22 21 -40 44 -40 49 0 12 61 76 72 76
4 0 8 -37 8 -82z m93 19 c15 -17 17 -48 17 -336 l0 -317 -45 -44 -45 -44 0
404 0 403 28 -23 c15 -14 35 -33 45 -43z m777 -17 c0 -91 -5 -93 -64 -31 l-30
31 39 40 c22 22 43 40 47 40 4 0 8 -36 8 -80z m110 -320 l0 -316 -45 -44 -45
-44 0 404 0 404 45 -44 45 -44 0 -316z m870 0 l0 -316 -43 -42 -44 -43 -6 219
c-4 121 -4 301 0 401 l6 182 44 -43 43 -42 0 -316z m760 325 c0 -41 -3 -75 -7
-75 -4 0 -24 17 -45 37 l-38 37 37 38 c20 21 41 38 45 38 4 0 8 -34 8 -75z
m108 -320 l3 -315 -44 -47 -44 -46 -7 274 c-4 151 -4 332 0 402 l7 129 41 -41
41 -41 3 -315z m872 -5 l0 -311 -45 -47 -45 -47 0 405 0 405 45 -47 45 -47 0
-311z m-2720 118 c0 -48 -3 -88 -8 -88 -11 0 -182 174 -182 185 0 5 19 29 42
52 l42 43 53 -52 53 -52 0 -88z m2610 0 c0 -48 -3 -88 -7 -88 -4 0 -49 42
-100 92 l-93 92 47 48 47 48 53 -52 53 -52 0 -88z m-3528 135 l48 -47 0 -88
c0 -48 -3 -88 -8 -88 -10 0 -182 174 -182 185 0 13 72 85 84 85 6 0 32 -21 58
-47z m1742 -3 l46 -49 0 -86 c0 -47 -4 -85 -9 -85 -5 0 -51 41 -101 91 l-93
91 44 44 c24 24 48 44 55 44 6 0 32 -22 58 -50z m870 0 l46 -49 0 -86 c0 -47
-4 -85 -8 -85 -7 0 -47 40 -147 148 l-39 42 39 40 c21 22 44 40 51 40 6 0 32
-22 58 -50z m-2344 -250 l0 -201 -45 -47 -45 -47 0 295 0 295 45 -47 45 -47 0
-201z m861 2 l3 -213 -42 -42 -42 -42 0 295 0 295 39 -40 40 -40 2 -213z m869
-2 l0 -216 -38 -37 -39 -38 -6 107 c-9 136 -9 319 0 407 l6 68 38 -37 39 -38
0 -216z m870 0 l0 -216 -39 -38 c-32 -31 -39 -35 -45 -21 -8 23 -8 550 1 559
4 3 24 -10 45 -31 l38 -37 0 -216z m870 0 l0 -211 -40 -42 -39 -42 0 295 0
295 39 -42 40 -42 0 -211z m-2822 -105 l-3 -90 -147 144 c-82 80 -148 149
-148 155 0 6 19 30 42 53 l43 43 108 -108 108 -108 -3 -89z m870 0 l-3 -90
-147 145 c-82 79 -148 149 -148 154 0 6 19 30 42 53 l43 43 108 -108 108 -108
-3 -89z m872 3 c0 -49 -3 -88 -7 -88 -4 0 -74 66 -155 147 l-148 148 47 47 47
48 108 -107 108 -108 0 -87z m870 5 c0 -59 -4 -83 -12 -83 -7 0 -77 64 -155
142 l-143 143 47 47 47 48 108 -107 108 -108 0 -82z m-3145 187 l90 -90 -90
-90 c-49 -49 -93 -90 -97 -90 -5 0 -8 81 -8 180 0 99 3 180 8 180 4 0 48 -40
97 -90z m868 2 l87 -87 -95 -95 -95 -95 0 183 c0 100 3 182 8 182 4 0 47 -39
95 -88z m872 -2 l90 -90 -89 -89 c-49 -50 -93 -88 -98 -85 -10 7 -11 354 0
354 4 0 48 -40 97 -90z m867 3 l87 -88 -87 -93 c-48 -51 -90 -93 -94 -92 -10
0 -10 360 0 360 4 0 47 -39 94 -87z m-2230 -160 l158 -158 0 -90 0 -90 -205
205 -205 205 42 42 c23 24 45 43 47 43 3 0 77 -71 163 -157z m870 0 l158 -158
0 -87 c0 -49 -3 -88 -8 -88 -4 0 -97 90 -207 200 l-199 200 44 45 c24 25 47
45 49 45 3 0 77 -71 163 -157z m870 0 l158 -158 0 -87 c0 -49 -3 -88 -8 -88
-4 0 -97 90 -207 200 l-199 200 44 45 c24 25 47 45 49 45 3 0 77 -71 163 -157z
m871 -1 l157 -158 0 -88 c0 -48 -4 -86 -9 -84 -15 5 -401 385 -401 394 0 9 81
94 90 94 3 0 77 -71 163 -158z m-2841 11 c21 -20 38 -42 38 -48 0 -5 -91 -101
-203 -213 l-203 -202 -44 45 -44 45 204 205 c113 113 207 205 209 205 3 0 22
-17 43 -37z m898 -37 c11 -17 -8 -39 -191 -222 l-204 -204 -45 45 -45 45 204
204 205 205 31 -27 c18 -15 38 -36 45 -46z m849 30 l44 -44 -194 -197 c-107
-108 -202 -201 -213 -207 -15 -8 -26 -3 -57 28 -21 21 -39 44 -39 51 0 15 391
414 405 413 6 0 30 -20 54 -44z m863 7 c21 -20 38 -42 38 -47 0 -14 -392 -406
-405 -406 -6 0 -29 18 -50 40 l-39 40 204 205 c113 113 207 205 209 205 3 0
22 -17 43 -37z m-1794 -360 l-208 -208 -45 45 -45 44 207 208 208 208 45 -45
45 -45 -207 -207z m-706 250 c21 -20 38 -42 38 -47 0 -14 -392 -406 -405 -406
-6 0 -29 18 -50 40 l-39 40 204 205 c113 113 207 205 209 205 3 0 22 -17 43
-37z m1743 -3 l39 -40 -207 -208 -207 -207 -42 43 -43 42 205 205 c113 113
207 205 210 205 3 0 24 -18 45 -40z m710 -250 c-110 -110 -205 -200 -210 -200
-6 0 -29 18 -50 40 l-39 40 204 205 205 205 45 -45 45 -45 -200 -200z m248 33
c-34 -37 -127 -133 -208 -212 l-146 -144 -47 46 -47 47 210 210 210 210 44
-44 44 -45 -60 -68z m-2588 107 l39 -40 -207 -207 -207 -207 -40 39 c-22 21
-40 43 -40 48 0 13 393 407 405 407 6 0 29 -18 50 -40z m870 0 l39 -40 -204
-205 c-113 -113 -210 -205 -215 -205 -6 0 -29 18 -50 40 l-39 40 204 205 c113
113 210 205 215 205 6 0 29 -18 50 -40z m870 0 l39 -40 -49 -53 c-129 -136
-255 -263 -308 -309 l-58 -51 -45 44 -44 43 202 203 c112 112 208 203 213 203
6 0 29 -18 50 -40z m-1797 -357 l-208 -208 -45 45 -45 44 207 208 208 208 45
-45 45 -45 -207 -207z m1032 252 l45 -45 -208 -208 -207 -207 -45 46 -46 45
202 207 c111 114 205 207 208 207 4 0 27 -20 51 -45z m870 0 l45 -45 -206
-206 -206 -206 -27 17 c-15 10 -36 31 -48 47 l-21 30 204 204 c112 112 206
204 209 204 3 0 26 -20 50 -45z m868 -8 l43 -44 -206 -201 c-226 -222 -215
-216 -270 -151 l-26 32 198 202 c109 111 203 203 208 203 6 1 30 -17 53 -41z
m-3366 -94 c21 -20 38 -42 38 -47 0 -13 -71 -86 -84 -86 -6 0 -30 19 -53 42
l-43 42 42 43 c23 24 47 43 52 43 6 0 27 -17 48 -37z m866 -6 l42 -43 -45 -44
-45 -44 -45 44 -45 44 42 43 c23 24 45 43 48 43 3 0 25 -19 48 -43z m870 0
l42 -43 -45 -44 -45 -44 -45 44 -45 44 42 43 c23 24 45 43 48 43 3 0 25 -19
48 -43z m877 -3 l38 -46 -44 -44 -43 -44 -48 47 -48 47 42 43 c23 24 47 43 54
43 6 0 28 -21 49 -46z m869 7 c44 -45 42 -56 -20 -111 l-38 -33 -44 48 -45 47
44 44 c24 24 48 44 54 44 6 0 28 -18 49 -39z m-3374 -106 l44 -45 -99 -100
-100 -100 -97 97 -98 98 45 45 45 44 50 -49 50 -50 53 53 c28 28 54 52 57 52
3 0 26 -20 50 -45z m764 -6 l54 54 46 -49 46 -49 -100 -100 -100 -100 -95 95
c-52 52 -95 99 -95 104 0 6 19 30 42 53 l42 43 53 -52 53 -52 54 53z m871 1
l55 54 44 -49 45 -50 -99 -100 -100 -100 -100 100 -100 99 47 48 47 48 53 -52
53 -52 55 54z m870 0 l55 55 45 -45 45 -45 -104 -104 -103 -103 -98 97 -98 96
48 49 49 50 53 -52 53 -52 55 54z m910 -140 l-100 -100 -92 92 c-51 51 -93 97
-93 102 0 13 71 86 84 86 6 0 32 -21 58 -47 l48 -48 53 53 52 52 45 -45 45
-45 -100 -100z m-2597 -27 l108 107 44 -45 45 -45 -153 -153 -152 -152 -152
152 -153 153 45 45 44 45 108 -107 108 -108 108 108z m870 0 l108 107 44 -45
45 -45 -153 -153 -152 -152 -152 152 -153 153 45 45 44 45 108 -107 108 -108
108 108z m865 4 l107 108 47 -48 48 -47 -153 -153 -152 -152 -152 152 -153
153 45 45 44 45 106 -105 105 -105 108 107z m870 0 l107 108 46 -47 47 -46
-21 -29 c-11 -15 -79 -86 -152 -157 l-131 -130 -154 154 -155 155 47 47 47 48
106 -105 105 -105 108 107z m-2993 -43 c22 -20 40 -42 40 -48 0 -6 -40 -52
-90 -101 l-90 -90 0 90 0 89 47 48 c26 26 49 48 50 48 2 0 21 -16 43 -36z
m828 -151 l-93 -93 -3 92 -3 92 48 48 47 48 48 -47 48 -47 -92 -93z m910 144
c23 -23 42 -47 42 -53 0 -6 -38 -48 -85 -94 -61 -59 -89 -80 -97 -72 -6 6 -9
42 -7 91 4 80 4 81 49 126 24 25 47 45 50 45 3 0 25 -19 48 -43z m872 7 c22
-20 40 -42 40 -48 0 -6 -40 -52 -90 -101 -102 -101 -104 -101 -98 20 3 73 4
76 48 120 24 25 48 45 52 45 4 0 26 -16 48 -36z m-2812 -17 l42 -43 0 -417 c0
-229 -4 -417 -8 -417 -4 0 -27 19 -50 43 l-42 43 0 417 c0 229 4 417 8 417 4
0 27 -19 50 -43z m870 0 l42 -43 0 -417 c0 -231 -4 -417 -9 -417 -5 0 -27 20
-50 45 l-41 45 0 415 c0 228 4 415 8 415 4 0 27 -19 50 -43z m787 -755 c-3 -3
-23 12 -45 33 l-40 39 0 318 0 318 43 47 42 46 3 -398 c1 -219 0 -400 -3 -403z
m83 755 l42 -43 0 -417 c0 -229 -4 -417 -8 -417 -4 0 -27 19 -50 43 l-42 43 0
417 c0 229 4 417 8 417 4 0 27 -19 50 -43z m867 3 l40 -41 3 -419 c1 -231 -1
-420 -6 -420 -4 0 -27 19 -50 43 l-42 43 0 417 c0 229 4 417 8 417 4 0 26 -18
47 -40z m-2685 -372 l0 -403 -46 47 -45 48 3 319 3 320 34 35 c19 20 39 36 43
36 4 0 8 -181 8 -402z m870 7 c0 -222 -4 -395 -9 -395 -5 0 -25 18 -45 40
l-36 40 0 315 0 315 36 40 c20 22 40 40 45 40 5 0 9 -173 9 -395z m1740 -7 l0
-402 -45 44 -45 44 0 318 0 318 36 40 c20 22 40 40 45 40 5 0 9 -176 9 -402z
m870 0 l0 -403 -45 47 -45 47 0 315 0 316 36 40 c20 22 40 40 45 40 5 0 9
-176 9 -402z m-3093 270 l42 -41 -136 -144 c-75 -78 -140 -143 -145 -143 -4 0
-8 39 -8 87 l0 88 97 97 c54 54 100 98 102 98 3 0 24 -19 48 -42z m871 -1 l42
-43 -145 -144 -145 -145 0 90 0 90 97 97 c54 54 100 98 103 98 3 0 25 -19 48
-43z m872 -2 l44 -45 -139 -140 c-77 -77 -143 -140 -147 -140 -5 0 -8 39 -8
87 l0 88 97 97 c54 54 100 98 103 98 3 0 26 -20 50 -45z m872 8 c21 -20 38
-42 38 -48 0 -5 -65 -75 -144 -154 -140 -140 -145 -144 -152 -117 -3 14 -4 56
-2 92 l4 65 99 99 c55 55 104 100 109 100 6 0 27 -17 48 -37z m-3102 -261 c0
-159 -3 -292 -7 -296 -4 -3 -24 10 -45 31 l-38 37 0 220 0 220 37 38 c20 21
41 38 45 38 4 0 8 -130 8 -288z m870 64 c0 -117 -3 -248 -7 -290 l-6 -77 -39
37 -38 38 0 220 0 220 37 38 c20 20 40 35 45 32 4 -3 8 -101 8 -218z m870 -70
c0 -155 -3 -286 -7 -290 -4 -3 -24 10 -45 31 l-38 37 0 220 0 220 37 38 c20
20 40 35 45 32 4 -3 8 -132 8 -288z m869 -12 c1 -149 -2 -274 -6 -278 -4 -3
-24 10 -45 31 l-38 37 0 220 0 220 37 38 c33 34 38 36 45 21 3 -10 7 -140 7
-289z m871 43 c0 -139 -3 -269 -7 -290 l-6 -38 -38 37 -39 38 0 220 0 220 37
38 c20 20 40 35 45 32 4 -3 8 -119 8 -257z m-422 -124 c-146 -146 -204 -199
-208 -187 -3 8 -5 52 -4 96 l1 80 157 156 156 156 50 -49 50 -50 -202 -202z
m-2460 244 l42 -42 -200 -200 -200 -200 0 95 -1 95 153 147 c84 81 155 148
158 148 3 0 25 -19 48 -43z m870 0 l42 -42 -200 -200 -200 -200 0 93 0 92 147
150 c81 82 152 150 158 150 6 0 30 -19 53 -43z m871 -1 l44 -45 -193 -195
c-107 -108 -197 -196 -202 -196 -4 0 -8 42 -8 92 l0 93 147 147 c81 82 152
148 158 148 6 0 30 -20 54 -44z m-2455 -335 c-3 -3 -23 13 -45 36 l-39 42 0
109 0 110 43 38 42 38 3 -183 c1 -101 0 -187 -4 -190z m876 178 c0 -98 -3
-179 -7 -179 -4 0 -24 17 -45 37 l-38 37 0 110 0 110 37 38 c20 20 40 35 45
32 4 -3 8 -86 8 -185z m870 6 c0 -102 -3 -185 -7 -185 -4 0 -24 17 -45 37
l-38 37 0 110 0 110 37 38 c20 21 41 38 45 38 4 0 8 -83 8 -185z m870 0 c0
-102 -3 -185 -7 -185 -4 0 -24 17 -45 37 l-38 37 0 110 0 110 37 38 c20 21 41
38 45 38 4 0 8 -83 8 -185z m870 0 c0 -102 -3 -185 -7 -185 -4 0 -24 17 -45
37 l-38 37 0 110 0 110 37 38 c20 21 41 38 45 38 4 0 8 -83 8 -185z m-2720
-17 l0 -93 -197 -197 c-109 -109 -201 -198 -205 -198 -5 0 -8 42 -8 92 l0 93
197 197 c109 109 201 198 205 198 5 0 8 -42 8 -92z m870 0 l0 -93 -197 -197
c-109 -109 -201 -198 -205 -198 -5 0 -8 42 -8 92 l0 93 197 197 c109 109 201
198 205 198 5 0 8 -42 8 -92z m870 0 l0 -93 -197 -197 c-109 -109 -201 -198
-205 -198 -5 0 -8 42 -8 92 l0 93 197 197 c109 109 201 198 205 198 5 0 8 -42
8 -92z m870 0 l0 -92 -199 -199 c-118 -119 -203 -197 -210 -193 -7 4 -11 39
-11 89 l0 81 202 203 c111 112 206 203 210 203 4 0 8 -41 8 -92z m-3260 -323
l204 -205 -39 -40 c-21 -22 -44 -40 -49 -40 -6 0 -102 91 -213 202 l-203 203
42 42 c23 24 45 43 48 43 3 0 97 -92 210 -205z m870 0 l204 -205 -39 -40 c-21
-22 -44 -40 -49 -40 -6 0 -102 91 -213 202 l-203 203 42 42 c23 24 45 43 48
43 3 0 97 -92 210 -205z m870 0 l204 -205 -44 -45 -44 -45 -208 207 -208 208
42 42 c23 24 45 43 48 43 3 0 97 -92 210 -205z m853 28 c98 -98 188 -191 199
-206 l20 -29 -38 -39 c-21 -21 -43 -39 -48 -39 -6 0 -102 91 -213 202 l-203
203 42 42 c23 24 47 43 52 43 5 0 90 -80 189 -177z m887 -28 l205 -205 -47
-47 -46 -46 -208 207 -208 206 44 45 c24 25 47 45 50 45 3 0 97 -92 210 -205z
m-2520 -310 c0 -6 -18 -29 -40 -50 l-40 -39 -207 207 -208 207 45 45 44 45
203 -202 c112 -112 203 -208 203 -213z m870 0 c0 -6 -18 -29 -40 -50 l-40 -39
-207 207 -208 207 45 45 44 45 203 -202 c112 -112 203 -208 203 -213z m833
-47 l-48 -48 -207 207 -208 208 47 47 48 48 207 -207 208 -208 -47 -47z
m-2771 255 c109 -109 198 -203 198 -208 0 -6 -18 -29 -40 -50 l-40 -39 -207
207 -207 207 39 40 c21 22 44 40 49 40 6 0 100 -89 208 -197z m3478 -8 l205
-205 -43 -42 -42 -43 -207 207 -207 208 39 40 c21 22 42 40 45 40 3 0 97 -92
210 -205z m-2712 -100 l207 -204 -47 -47 -47 -47 -146 138 c-144 136 -265 265
-265 281 0 11 72 84 83 84 5 0 101 -92 215 -205z m1062 -209 c0 -14 -71 -86
-84 -86 -6 0 -102 91 -213 202 l-203 203 47 47 48 48 202 -202 c112 -112 203
-207 203 -212z m667 212 c112 -112 203 -208 203 -213 0 -6 -18 -28 -40 -50
l-40 -39 -32 29 c-72 64 -321 312 -349 347 l-31 38 39 45 c21 24 40 44 43 45
3 0 96 -91 207 -202z m1073 -213 c0 -6 -18 -29 -40 -50 l-40 -39 -37 34 c-87
80 -297 289 -335 333 l-41 48 44 45 43 44 203 -202 c112 -112 203 -208 203
-213z m-2910 100 l205 -205 -48 -47 -47 -48 -207 207 -208 208 45 45 c24 25
47 45 50 45 3 0 97 -92 210 -205z m1028 -252 l-42 -43 -208 207 -208 208 42
42 42 43 208 -207 208 -208 -42 -42z m712 252 l205 -205 -48 -47 -47 -48 -207
207 -208 208 45 45 c24 25 47 45 50 45 3 0 97 -92 210 -205z m870 0 l205 -205
-48 -47 -47 -48 -207 207 -208 208 45 45 c24 25 47 45 50 45 3 0 97 -92 210
-205z m-2945 -53 c-3 -3 -21 10 -40 28 l-35 34 37 39 38 38 3 -67 c2 -36 0
-69 -3 -72z m84 94 l25 -26 -34 -35 c-19 -19 -38 -35 -42 -35 -4 0 -8 32 -8
70 0 64 2 70 18 61 9 -5 28 -21 41 -35z m791 -26 c0 -48 -4 -70 -12 -70 -15 0
-68 50 -68 64 0 12 60 76 72 76 4 0 8 -31 8 -70z m71 33 c29 -33 28 -40 -11
-78 l-40 -39 0 77 c0 71 2 77 18 68 9 -5 24 -17 33 -28z m884 -20 c9 -14 13
-28 8 -32 -4 -3 -23 -19 -40 -35 l-33 -30 0 77 0 77 24 -15 c14 -9 32 -28 41
-42z m785 -13 c0 -38 -3 -70 -8 -70 -14 0 -52 31 -63 52 -9 17 -6 25 22 54 18
19 37 34 41 34 4 0 8 -31 8 -70z m87 13 c3 -8 -9 -29 -28 -49 -29 -30 -34 -32
-41 -17 -9 23 -10 108 -2 116 9 8 64 -31 71 -50z m-957 -18 c0 -36 -4 -65 -10
-65 -5 0 -24 13 -42 29 l-33 30 34 35 c19 20 39 36 43 36 4 0 8 -29 8 -65z
m-1788 -62 l48 -47 0 -90 0 -91 -95 95 -95 94 42 43 c23 24 44 43 47 43 3 0
27 -21 53 -47z m160 -135 l-92 -93 0 90 0 89 47 48 47 48 46 -45 45 -45 -93
-92z m758 0 c0 -48 -3 -88 -7 -88 -4 0 -47 39 -95 87 l-88 87 47 48 47 48 48
-47 48 -47 0 -88z m162 145 c21 -20 38 -42 38 -48 0 -6 -40 -51 -90 -100 l-90
-90 0 90 0 89 47 48 c26 26 49 48 52 48 3 0 22 -17 43 -37z m660 -10 l48 -47
0 -88 c0 -48 -3 -88 -8 -88 -4 0 -48 40 -97 90 l-89 90 44 45 c24 25 46 45 49
45 3 0 27 -21 53 -47z m248 -46 c0 -12 -139 -156 -162 -168 -17 -9 -18 -2 -18
80 l0 89 47 46 48 45 42 -41 c24 -23 43 -46 43 -51z m670 -92 l0 -90 -92 92
-93 93 45 45 44 45 48 -47 48 -47 0 -91z m160 140 l44 -45 -89 -90 c-49 -49
-92 -87 -97 -84 -12 8 -10 142 3 167 12 24 79 97 89 97 3 0 26 -20 50 -45z
m-2868 -164 l98 -99 0 -93 0 -94 -145 145 c-80 80 -145 149 -145 154 0 14 71
86 84 86 6 0 55 -44 108 -99z m368 54 l45 -45 -148 -148 -147 -147 0 93 0 93
97 100 c53 54 99 99 102 99 4 0 27 -20 51 -45z m501 -60 l99 -100 0 -87 c0
-49 -3 -88 -8 -88 -4 0 -72 65 -152 145 l-144 145 44 45 c24 25 48 44 53 42 5
-1 53 -47 108 -102z m369 60 l45 -45 -148 -148 -147 -147 0 95 0 95 97 97 c54
54 100 98 103 98 3 0 26 -20 50 -45z m497 -57 l103 -103 0 -90 0 -90 -150 150
-150 149 42 43 c23 24 45 43 47 43 3 0 52 -46 108 -102z m373 62 c22 -22 40
-43 40 -48 0 -4 -65 -72 -145 -152 l-145 -145 0 95 0 95 97 97 c54 54 101 98
105 98 5 0 26 -18 48 -40z m598 -255 l-3 -90 -148 144 -147 145 47 48 48 48
103 -103 103 -103 -3 -89z m280 252 l43 -44 -145 -149 c-166 -172 -170 -173
-165 -45 l4 81 100 100 c55 55 104 100 110 100 6 0 30 -19 53 -43z m-2510
-100 c23 -23 42 -47 42 -52 0 -11 -381 -395 -392 -395 -4 0 -8 39 -8 87 l0 87
153 157 c83 86 154 157 157 158 3 0 25 -18 48 -42z m-531 -119 l153 -153 0
-87 c0 -49 -3 -88 -8 -88 -11 0 -392 383 -392 395 0 13 72 85 84 85 6 0 79
-69 163 -152z m870 0 l153 -153 0 -90 0 -90 -200 200 -200 200 42 42 c23 24
45 43 47 43 3 0 74 -69 158 -152z m533 107 l44 -45 -194 -195 c-107 -107 -198
-195 -202 -195 -5 0 -8 40 -8 88 l0 88 153 152 c83 84 154 152 157 152 3 0 26
-20 50 -45z m337 -107 l153 -153 0 -87 c0 -49 -4 -88 -9 -88 -5 0 -95 89 -200
197 l-191 197 42 43 c23 24 45 43 47 43 3 0 74 -69 158 -152z m531 109 l42
-42 -200 -200 -200 -200 0 97 0 96 152 146 c84 80 155 146 158 146 3 0 25 -19
48 -43z m340 -110 l152 -153 0 -87 c0 -48 -3 -87 -8 -87 -4 0 -95 88 -202 195
l-194 195 44 45 c24 25 47 45 50 45 3 0 74 -69 158 -153z m530 110 l42 -42
-198 -198 c-109 -109 -201 -195 -205 -191 -4 4 -7 41 -7 82 l0 76 157 158 c86
87 160 158 163 158 3 0 25 -19 48 -43z m-2438 -475 l0 -313 -45 -47 -45 -47 1
410 0 410 44 -50 45 -50 0 -313z m760 316 c0 -38 -3 -68 -6 -68 -13 0 -65 43
-75 62 -9 17 -5 26 27 59 46 47 54 40 54 -53z m-1740 7 c0 -42 -4 -75 -10 -75
-5 0 -26 16 -46 36 l-36 36 38 39 c21 22 42 39 46 39 4 0 8 -34 8 -75z m74 35
l36 -40 0 -316 0 -315 -45 -47 -45 -47 0 403 c0 226 4 402 9 402 5 0 25 -18
45 -40z m796 -35 c0 -41 -4 -75 -9 -75 -5 0 -26 16 -47 35 l-37 36 38 39 c22
22 43 40 47 40 4 0 8 -34 8 -75z m980 -322 l0 -313 -42 -47 -43 -46 -6 119
c-9 169 -10 472 -2 587 l6 98 44 -43 43 -42 0 -313z m760 322 c0 -48 -4 -75
-11 -75 -6 0 -27 16 -47 36 l-35 35 39 40 c21 21 42 39 46 39 4 0 8 -34 8 -75z
m110 -323 l0 -313 -45 -47 -45 -47 0 405 0 404 45 -44 45 -44 0 -314z m760
317 c0 -40 -4 -69 -10 -69 -6 0 -27 15 -48 34 l-37 35 39 40 c22 22 43 38 48
35 4 -3 8 -36 8 -75z m110 -319 l0 -311 -45 -47 -45 -47 0 405 0 405 45 -47
45 -47 0 -311z m-3590 115 l0 -90 -97 97 -98 98 45 45 44 45 53 -52 53 -52 0
-91z m870 0 l0 -90 -97 97 -98 98 45 45 44 45 53 -52 53 -52 0 -91z m870 3 c0
-48 -3 -88 -8 -88 -7 0 -110 103 -162 163 l-24 27 44 45 44 45 53 -52 53 -52
0 -88z m817 140 l53 -52 0 -88 c0 -48 -3 -88 -8 -88 -4 0 -50 43 -102 95 l-94
95 44 45 c24 25 46 45 49 45 3 0 29 -23 58 -52z m923 -135 c0 -44 -3 -83 -7
-87 -4 -3 -49 35 -100 86 l-93 92 48 49 47 48 53 -55 52 -54 0 -79z m-3277
101 c4 -7 8 -108 10 -223 l2 -211 -42 -42 -43 -43 0 294 0 293 33 -27 c17 -15
35 -33 40 -41z m846 31 l31 -36 0 -217 0 -218 -40 -39 -40 -39 0 292 c0 165 4
292 9 292 5 0 23 -16 40 -35z m869 -4 l32 -40 0 -213 0 -214 -39 -38 c-32 -31
-39 -35 -45 -21 -3 9 -6 140 -6 291 0 303 1 306 58 235z m902 -251 l0 -216
-40 -39 -40 -39 0 294 0 294 40 -39 40 -39 0 -216z m870 0 l0 -216 -38 -37
c-21 -21 -41 -34 -45 -31 -9 9 -9 145 0 387 l6 188 39 -38 38 -37 0 -216z
m-2928 93 l108 -108 0 -82 c0 -59 -4 -83 -12 -83 -7 0 -77 64 -155 142 l-142
142 42 47 c23 26 44 47 47 48 2 1 53 -47 112 -106z m901 -29 l77 -80 0 -82 c0
-48 -4 -82 -10 -82 -5 0 -75 64 -155 142 l-146 141 47 48 47 48 31 -27 c17
-16 66 -64 109 -108z m865 13 l82 -85 0 -86 c0 -47 -3 -86 -8 -86 -4 0 -72 65
-152 145 l-144 145 43 44 44 45 26 -19 c14 -10 63 -56 109 -103z m860 10 l92
-94 0 -87 c0 -47 -3 -86 -8 -86 -4 0 -72 65 -152 145 l-144 145 43 44 c33 34
48 43 60 36 9 -4 58 -51 109 -103z m-2166 -13 l67 -70 -87 -87 c-48 -48 -91
-87 -95 -87 -4 0 -7 81 -7 181 l0 181 28 -24 c15 -13 57 -55 94 -94z m846 23
l92 -92 -95 -95 -95 -95 0 188 c0 103 1 187 3 187 1 0 44 -42 95 -93z m-1731
-2 l88 -85 -90 -90 c-49 -49 -93 -90 -97 -90 -5 0 -8 79 -8 175 0 111 4 175
10 175 6 0 49 -38 97 -85z m2574 33 c33 -29 73 -70 89 -90 l30 -37 -67 -71
c-36 -39 -79 -80 -95 -91 l-28 -20 0 180 c0 100 3 181 6 181 3 0 32 -24 65
-52z m-2199 -195 l158 -158 0 -87 c0 -49 -3 -88 -8 -88 -4 0 -97 90 -207 200
l-199 200 44 45 c24 25 47 45 49 45 3 0 77 -71 163 -157z m870 0 l158 -158 0
-87 c0 -49 -3 -88 -8 -88 -4 0 -97 90 -207 200 l-199 200 44 45 c24 25 47 45
49 45 3 0 77 -71 163 -157z m870 0 l158 -158 0 -87 c0 -49 -3 -88 -8 -88 -4 0
-97 90 -207 200 l-199 200 44 45 c24 25 47 45 49 45 3 0 77 -71 163 -157z
m871 -1 l157 -158 0 -87 c0 -48 -3 -87 -8 -87 -4 0 -97 90 -207 200 l-199 200
44 45 c24 25 47 45 50 45 3 0 77 -71 163 -158z m-388 -247 l-210 -203 -48 46
-47 47 207 207 208 208 50 -51 50 -50 -210 -204z m-2453 258 c21 -20 38 -42
38 -48 0 -5 -91 -101 -203 -213 l-203 -202 -44 45 -44 45 204 205 c113 113
207 205 209 205 3 0 22 -17 43 -37z m876 -6 l42 -42 -205 -205 -205 -205 -47
48 -48 47 200 200 c110 110 205 200 210 200 6 0 30 -19 53 -43z m872 -3 l45
-45 -210 -204 -210 -203 -42 41 c-24 23 -43 46 -43 51 0 14 392 406 405 406 6
0 31 -20 55 -46z m-1635 -104 l39 -40 -207 -208 -207 -207 -39 45 -40 45 202
203 c111 111 204 202 207 202 3 0 24 -18 45 -40z m870 0 l39 -40 -207 -208
-207 -207 -42 43 -43 42 205 205 c113 113 207 205 210 205 3 0 24 -18 45 -40z
m870 0 l39 -40 -207 -207 -207 -207 -40 39 c-22 21 -40 43 -40 48 0 13 392
407 405 407 6 0 29 -18 50 -40z m870 0 l39 -40 -204 -205 c-113 -113 -208
-205 -211 -205 -3 0 -25 19 -48 42 l-41 42 202 203 c112 112 208 203 213 203
6 0 29 -18 50 -40z m-2491 -111 c14 -17 26 -34 26 -37 0 -4 -92 -99 -205 -212
l-205 -204 -40 39 c-22 21 -40 44 -40 49 0 6 91 102 202 213 219 220 210 214
262 152z m825 -116 c-121 -127 -169 -175 -257 -258 l-82 -79 -45 44 -45 44
207 208 208 208 44 -45 45 -44 -75 -78z m741 -128 l-205 -204 -48 46 -48 45
205 206 206 206 48 -47 47 -47 -205 -205z m1035 245 l39 -40 -207 -207 -207
-208 -45 45 -45 44 202 203 c112 112 208 203 213 203 6 0 29 -18 50 -40z
m-2506 -104 l43 -43 -202 -199 c-111 -110 -204 -201 -206 -203 -2 -3 -25 15
-49 39 l-45 44 202 203 c112 112 205 203 208 203 3 0 25 -20 49 -44z m871 -1
l45 -45 -208 -208 -207 -207 -47 48 -48 47 205 205 c113 113 207 205 210 205
3 0 26 -20 50 -45z m703 -247 l-208 -208 -42 42 -43 42 207 208 208 208 42
-42 43 -42 -207 -208z m1037 247 l45 -45 -208 -208 -207 -207 -47 48 -48 47
205 205 c113 113 207 205 210 205 3 0 26 -20 50 -45z m-3370 -100 l44 -45 -47
-48 -47 -47 -47 47 -47 48 44 45 c24 25 47 45 50 45 3 0 26 -20 50 -45z m868
-8 l42 -43 -44 -43 c-49 -49 -62 -47 -111 10 l-26 32 42 43 c24 24 46 44 49
44 3 0 25 -19 48 -43z m877 3 l39 -40 -47 -47 -47 -47 -45 44 -45 44 42 43
c23 24 47 43 53 43 6 0 29 -18 50 -40z m870 0 l39 -40 -44 -45 c-24 -25 -49
-45 -55 -45 -6 0 -29 18 -50 40 l-39 40 44 45 c24 25 49 45 55 45 6 0 29 -18
50 -40z m863 -3 l42 -43 -45 -44 -45 -44 -45 44 -45 44 42 43 c23 24 45 43 48
43 3 0 25 -19 48 -43z m-2603 -107 l55 55 48 -48 47 -47 -103 -102 -102 -103
-100 100 -100 99 47 48 47 48 53 -52 53 -52 55 54z m870 0 l55 55 48 -48 47
-47 -103 -102 -102 -103 -95 95 c-52 52 -95 99 -95 104 0 6 19 30 42 53 l42
43 53 -52 53 -52 55 54z m870 0 l55 54 45 -44 45 -44 -97 -98 c-54 -54 -102
-98 -108 -98 -13 0 -185 172 -185 185 0 5 19 29 42 52 l42 43 53 -52 53 -52
55 54z m870 0 l55 54 45 -44 45 -44 -102 -103 -103 -103 -92 92 c-51 51 -93
97 -93 102 0 6 19 30 42 53 l42 43 53 -52 53 -52 55 54z m-770 -300 l-155
-155 -152 152 -153 153 45 45 44 45 106 -105 105 -105 110 110 109 110 48 -47
48 -48 -155 -155z m-1998 138 l103 -103 103 103 c56 56 107 102 113 102 5 0
29 -19 52 -43 l42 -42 -155 -155 -155 -155 -150 150 c-82 82 -150 154 -150
159 0 14 71 86 84 86 6 0 57 -46 113 -102z m1073 -3 c58 58 109 105 114 105
14 0 86 -71 86 -85 0 -5 -68 -78 -150 -160 l-150 -150 -152 152 -153 153 45
45 44 45 106 -105 105 -105 105 105z m1537 3 l103 -102 105 104 105 105 47
-47 46 -47 -62 -70 c-67 -75 -228 -231 -239 -231 -4 0 -75 67 -157 150 l-149
150 44 45 c24 25 46 45 49 45 2 0 51 -46 108 -102z m-2787 -53 l45 -45 -93
-93 -92 -92 0 90 0 90 41 48 c22 26 44 47 48 47 4 0 27 -20 51 -45z m710 -467
c0 -230 -4 -418 -8 -418 -4 0 -27 19 -50 43 l-42 43 0 424 0 424 50 -49 50
-49 0 -418z m168 469 l42 -43 -95 -94 -95 -95 0 95 0 94 42 43 c23 24 47 43
53 43 6 0 30 -19 53 -43z m862 -2 l44 -45 -89 -90 c-53 -53 -93 -86 -98 -81
-5 5 -8 45 -6 90 4 80 4 81 49 126 24 25 47 45 50 45 3 0 26 -20 50 -45z m870
0 l44 -45 -89 -90 c-49 -49 -92 -87 -97 -84 -4 3 -8 41 -8 85 l0 80 46 49 c26
28 50 50 53 50 4 0 27 -20 51 -45z m-2896 -764 c-3 -3 -23 13 -45 36 l-39 42
0 316 0 315 43 47 42 46 3 -398 c1 -219 0 -401 -4 -404z m84 759 l42 -39 0
-421 c0 -407 -1 -420 -19 -411 -10 6 -32 26 -50 46 l-31 36 0 414 c0 228 3
415 8 415 4 0 26 -18 50 -40z m786 -759 c-3 -3 -23 13 -45 36 l-39 42 0 316 0
315 43 47 42 46 3 -398 c1 -219 0 -401 -4 -404z m870 0 c-3 -3 -23 13 -45 36
l-39 42 0 316 0 315 43 47 42 46 3 -398 c1 -219 0 -401 -4 -404z m84 756 l42
-43 -2 -419 -3 -420 -47 44 -48 44 0 418 c0 231 4 419 8 419 4 0 27 -19 50
-43z m786 -756 c-3 -3 -23 13 -45 36 l-39 42 0 316 0 315 43 47 42 46 3 -398
c1 -219 0 -401 -4 -404z m84 756 l42 -43 0 -417 c0 -231 -4 -417 -9 -417 -5 0
-27 20 -50 45 l-41 45 0 415 c0 228 4 415 8 415 4 0 27 -19 50 -43z m786 -756
c-3 -3 -23 13 -45 36 l-39 42 0 318 0 317 43 44 42 43 3 -397 c1 -218 0 -400
-4 -403z m-3084 654 l45 -46 -145 -142 -145 -142 -3 89 -3 90 98 98 c54 54
100 98 103 98 3 0 26 -20 50 -45z m868 2 l42 -43 -145 -144 -145 -145 0 90 0
90 97 97 c54 54 100 98 103 98 3 0 25 -19 48 -43z m870 0 l42 -43 -145 -144
-145 -145 0 90 0 90 97 97 c54 54 100 98 103 98 3 0 25 -19 48 -43z m877 3
c38 -39 38 -40 20 -62 -50 -60 -261 -268 -272 -268 -10 0 -13 22 -13 81 l0 82
102 103 c56 57 107 104 113 104 6 0 28 -18 50 -40z m-3105 -265 c0 -162 -3
-295 -7 -295 -4 0 -24 17 -45 37 l-38 37 0 220 0 220 37 38 c20 21 41 38 45
38 4 0 8 -133 8 -295z m869 63 c-1 -128 -4 -261 -8 -296 l-6 -63 -39 40 -40
41 3 217 2 218 37 38 c20 20 40 37 44 37 4 0 7 -105 7 -232z m871 -64 c0 -214
-3 -284 -12 -284 -7 0 -27 14 -45 32 l-33 32 0 220 0 220 37 38 c20 20 40 35
45 32 4 -3 8 -133 8 -290z m860 -1 l0 -298 -42 42 -41 42 2 218 2 218 37 38
c20 20 37 37 39 37 2 0 3 -134 3 -297z m880 2 c0 -156 -4 -286 -8 -289 -12 -7
-68 53 -80 84 -5 14 -10 112 -10 219 l0 194 40 43 c22 24 44 41 49 38 5 -3 9
-133 9 -289z m-2880 160 l45 -45 -203 -203 -202 -202 0 95 0 95 152 152 c84
84 155 153 158 153 3 0 26 -20 50 -45z m870 0 l45 -45 -203 -203 -202 -202 0
95 0 95 152 152 c84 84 155 153 158 153 3 0 26 -20 50 -45z m870 0 l44 -45
-199 -200 c-116 -117 -203 -196 -208 -191 -5 5 -8 46 -6 90 l4 81 155 155 c85
85 157 155 160 155 3 0 26 -20 50 -45z m719 -251 c-116 -116 -201 -194 -208
-190 -7 4 -11 39 -11 88 l0 82 157 158 157 158 51 -50 50 -50 -196 -196z
m-3169 91 c0 -102 -4 -185 -9 -185 -5 0 -25 20 -45 44 l-36 44 0 103 0 103 37
38 c20 21 41 38 45 38 4 0 8 -83 8 -185z m870 0 c0 -106 -4 -185 -9 -185 -5 0
-26 19 -45 42 l-36 42 0 105 0 105 37 38 c20 21 41 38 45 38 4 0 8 -83 8 -185z
m870 -6 c0 -98 -3 -179 -7 -179 -4 0 -24 17 -45 37 l-38 37 0 110 0 110 37 38
c20 20 40 35 45 32 4 -3 8 -86 8 -185z m870 0 c0 -98 -3 -179 -7 -179 -4 0
-24 17 -45 37 l-38 37 0 110 0 110 37 38 c20 20 40 35 45 32 4 -3 8 -86 8
-185z m870 6 c0 -102 -3 -185 -7 -185 -4 0 -24 17 -45 37 l-38 37 0 110 0 110
37 38 c20 21 41 38 45 38 4 0 8 -83 8 -185z m-2720 -17 l0 -93 -197 -197
c-109 -109 -201 -198 -205 -198 -5 0 -8 42 -8 92 l0 93 197 197 c109 109 201
198 205 198 5 0 8 -42 8 -92z m870 0 l1 -93 -203 -197 -203 -198 -3 92 -3 92
198 198 c109 109 201 198 205 198 5 0 8 -42 8 -92z m870 4 l0 -87 -203 -203
c-112 -111 -206 -200 -210 -196 -4 4 -7 43 -7 88 l0 80 202 203 c111 112 206
203 210 203 4 0 8 -39 8 -88z m870 0 l0 -87 -204 -204 c-196 -196 -205 -203
-212 -178 -3 15 -4 57 -2 93 l4 65 199 199 c110 110 203 200 207 200 5 0 8
-39 8 -88z m-490 -577 l-45 -45 -210 210 -209 210 44 45 45 45 210 -210 210
-210 -45 -45z m-2770 250 l205 -205 -43 -42 -42 -43 -207 207 -207 208 39 40
c21 22 42 40 45 40 3 0 97 -92 210 -205z m870 0 l205 -205 -43 -42 -42 -43
-207 207 -207 208 39 40 c21 22 42 40 45 40 3 0 97 -92 210 -205z m870 0 l204
-205 -39 -40 c-21 -22 -44 -40 -50 -40 -5 0 -102 92 -215 205 l-204 205 39 40
c21 22 44 40 50 40 5 0 102 -92 215 -205z m-1685 -355 l-45 -45 -207 207 -208
208 45 45 44 45 208 -207 208 -208 -45 -45z m664 302 c88 -84 181 -177 207
-208 l47 -55 -38 -39 c-22 -22 -44 -40 -49 -40 -14 0 -416 401 -416 414 0 13
72 87 82 84 4 -2 79 -72 167 -156z m921 -47 l205 -205 -50 -50 -50 -50 -207
207 -208 208 47 47 c26 27 50 48 53 48 3 0 97 -92 210 -205z m857 3 c112 -112
203 -208 203 -213 0 -6 -18 -29 -40 -50 l-40 -39 -205 204 c-113 113 -205 209
-205 214 0 11 70 86 79 86 3 0 97 -91 208 -202z m1073 -213 c0 -6 -18 -29 -40
-50 l-40 -39 -211 209 -210 210 47 43 47 43 204 -203 c112 -111 203 -208 203
-213z m-1880 -150 l-45 -45 -210 210 -209 210 44 45 45 45 210 -210 210 -210
-45 -45z m-1037 247 l207 -208 -43 -42 c-23 -23 -47 -42 -53 -42 -5 0 -101 94
-211 208 l-202 209 42 41 c23 23 44 42 47 42 3 0 99 -93 213 -208z m1746 3
l206 -204 -47 -47 -47 -47 -108 101 c-60 55 -156 149 -212 208 l-103 106 43
44 c24 24 47 44 52 44 5 0 102 -92 216 -205z m891 -19 l184 -186 -49 -50 -50
-50 -210 210 -210 211 48 45 47 45 28 -20 c15 -11 110 -103 212 -205z m-133
-82 c109 -113 199 -209 201 -213 1 -3 -17 -26 -41 -49 l-42 -42 -210 210 -209
210 44 45 c24 25 47 45 51 45 4 0 96 -93 206 -206z m-2607 -9 l204 -205 -39
-40 c-21 -22 -44 -40 -49 -40 -6 0 -102 91 -213 202 l-203 203 42 42 c23 24
45 43 48 43 3 0 97 -92 210 -205z m868 2 l202 -202 -48 -48 -47 -47 -205 205
-204 205 44 45 c24 25 47 45 50 45 3 0 96 -91 208 -203z m872 -2 l205 -205
-45 -45 -45 -45 -210 210 -209 210 39 40 c21 22 44 40 50 40 5 0 102 -92 215
-205z m-240 6 c-4 -9 -22 -29 -39 -45 l-31 -30 0 84 0 84 40 -39 c29 -28 37
-42 30 -54z m-1835 -59 c-3 -3 -21 10 -40 28 l-35 34 37 39 38 38 3 -67 c2
-36 0 -69 -3 -72z m75 103 l34 -35 -34 -35 c-19 -19 -38 -35 -42 -35 -4 0 -8
32 -8 70 0 39 4 70 8 70 4 0 23 -16 42 -35z m800 -35 c0 -38 -4 -70 -8 -70 -4
0 -23 16 -42 35 l-34 35 34 35 c19 19 38 35 42 35 4 0 8 -31 8 -70z m57 -37
l-37 -38 0 75 0 75 37 -38 38 -37 -38 -37z m813 37 c0 -38 -4 -70 -8 -70 -4 0
-23 16 -42 35 l-34 35 34 35 c19 19 38 35 42 35 4 0 8 -31 8 -70z m870 0 c0
-38 -4 -70 -8 -70 -4 0 -23 16 -42 35 l-34 35 34 35 c19 19 38 35 42 35 4 0 8
-31 8 -70z m80 23 l21 -27 -38 -38 -38 -39 -9 50 c-5 27 -6 61 -2 75 5 22 10
25 25 16 11 -5 29 -22 41 -37z m-2690 -228 l0 -90 -92 92 -93 93 45 45 44 45
48 -47 48 -47 0 -91z m123 3 c-48 -48 -91 -88 -95 -88 -5 0 -8 41 -8 91 l0 91
47 44 48 43 48 -47 47 -46 -87 -88z m700 134 l48 -49 -3 -89 -3 -89 -95 92
-95 92 45 46 c24 25 47 45 50 45 3 0 27 -22 53 -48z m207 3 l44 -45 -84 -85
c-47 -47 -88 -85 -92 -85 -5 0 -8 39 -8 87 l0 87 42 43 c23 24 45 43 48 43 3
0 26 -20 50 -45z m663 -3 l48 -49 -3 -89 -3 -89 -95 92 -95 92 45 46 c24 25
47 45 50 45 3 0 27 -22 53 -48z m207 3 l44 -45 -89 -90 c-103 -104 -109 -103
-103 16 3 72 4 75 48 119 24 25 47 45 50 45 3 0 26 -20 50 -45z m663 -3 l48
-49 -3 -89 -3 -89 -93 94 -92 95 42 43 c23 24 45 43 48 43 3 0 27 -22 53 -48z
m207 3 l44 -45 -89 -90 c-49 -49 -92 -87 -97 -84 -4 3 -8 41 -8 85 l0 80 46
49 c26 28 50 50 53 50 4 0 27 -20 51 -45z m-2867 -164 l97 -98 0 -87 c0 -47
-3 -86 -8 -86 -4 0 -70 63 -147 140 l-139 140 44 45 c24 25 47 45 50 45 4 0
50 -44 103 -99z m365 56 l42 -43 -145 -144 -145 -145 0 90 0 90 97 97 c54 54
100 98 103 98 3 0 25 -19 48 -43z m504 -54 l98 -98 0 -92 c0 -51 -3 -93 -7
-93 -4 0 -72 64 -150 142 l-143 143 47 47 c26 27 50 48 52 48 3 0 50 -44 103
-97z m368 52 l44 -45 -139 -140 c-77 -77 -143 -140 -147 -140 -5 0 -8 39 -8
87 l0 88 97 97 c54 54 100 98 103 98 3 0 26 -20 50 -45z m503 -54 l97 -98 0
-87 c0 -47 -3 -86 -8 -86 -4 0 -70 63 -147 140 -129 130 -138 140 -123 157 8
10 26 30 38 46 13 15 29 27 35 27 6 0 55 -44 108 -99z m365 56 l42 -43 -143
-142 c-79 -79 -146 -140 -150 -136 -4 4 -7 41 -7 82 l0 75 102 103 c56 57 105
104 108 104 3 0 25 -19 48 -43z m505 -56 l97 -98 0 -87 c0 -47 -4 -86 -9 -86
-6 0 -74 63 -152 140 l-143 140 44 45 c24 25 49 45 55 45 6 0 55 -44 108 -99z
m372 59 l39 -40 -144 -145 c-79 -79 -147 -142 -152 -139 -4 3 -8 39 -8 81 l0
76 102 103 c56 57 107 104 113 104 6 0 29 -18 50 -40z m-2885 -462 c0 -49 -3
-88 -8 -88 -11 0 -392 383 -392 395 0 5 19 29 42 52 l42 43 158 -157 158 -158
0 -87z m1740 -3 l0 -90 -202 202 -203 203 45 45 44 45 158 -157 158 -158 0
-90z m390 351 l34 -36 -199 -200 c-116 -117 -203 -196 -208 -191 -5 5 -8 46
-6 90 l4 81 154 154 c169 170 160 165 221 102z m480 -348 c0 -49 -3 -88 -8
-88 -11 0 -392 383 -392 395 0 5 19 29 42 52 l42 43 158 -157 158 -158 0 -87z
m-2231 348 l43 -44 -153 -157 c-85 -87 -175 -175 -201 -197 l-48 -40 0 93 0
92 153 148 c83 82 154 148 157 149 3 0 25 -20 49 -44z m338 -108 l153 -153 0
-90 0 -90 -200 200 -200 200 42 42 c23 24 45 43 47 43 3 0 74 -69 158 -152z
m531 109 l42 -42 -200 -200 -200 -200 0 95 0 95 147 147 c81 82 152 148 158
148 6 0 30 -19 53 -43z m1740 0 l42 -42 -198 -198 c-109 -109 -201 -195 -205
-191 -4 4 -7 43 -7 87 l0 81 152 153 c84 84 157 153 163 153 6 0 30 -19 53
-43z m-3423 -225 c-3 -3 -23 12 -45 33 l-40 39 42 44 43 43 3 -77 c2 -42 0
-79 -3 -82z m870 0 c-3 -3 -23 12 -45 33 l-40 39 42 44 43 43 3 -77 c2 -42 0
-79 -3 -82z m1740 0 c-3 -3 -23 12 -45 33 l-40 39 42 44 43 43 3 -77 c2 -42 0
-79 -3 -82z m115 -245 c0 -345 4 -318 -62 -377 l-28 -23 0 404 0 404 45 -47
45 -47 0 -314z m760 316 l0 -88 -47 47 -47 48 39 40 c21 22 43 40 47 40 4 0 8
-39 8 -87z m-3406 37 l36 -40 0 -317 0 -317 -37 -38 c-20 -21 -41 -38 -45 -38
-4 0 -8 178 -8 395 0 222 4 395 9 395 5 0 25 -18 45 -40z m870 0 l36 -40 0
-315 0 -315 -36 -40 c-20 -22 -40 -40 -45 -40 -5 0 -9 173 -9 395 0 222 4 395
9 395 5 0 25 -18 45 -40z m796 -35 c0 -41 -3 -75 -7 -75 -4 0 -24 17 -45 37
l-38 37 37 38 c20 21 41 38 45 38 4 0 8 -34 8 -75z m74 35 l36 -40 0 -315 0
-315 -36 -40 c-20 -22 -40 -40 -44 -40 -4 0 -10 89 -12 198 -7 224 1 592 12
592 4 0 24 -18 44 -40z m1776 -355 l0 -306 -45 -47 -45 -47 0 400 0 400 45
-47 45 -47 0 -306z m-3590 110 l0 -90 -97 97 -98 98 45 45 44 45 53 -52 53
-52 0 -91z m870 8 c0 -46 -3 -83 -8 -83 -4 0 -48 40 -97 90 l-89 90 44 45 44
45 53 -52 53 -52 0 -83z m817 135 l53 -52 0 -90 0 -91 -100 100 -100 99 42 43
c23 24 44 43 47 43 3 0 29 -23 58 -52z m870 0 l53 -52 0 -90 0 -91 -100 100
-100 99 42 43 c23 24 44 43 47 43 3 0 29 -23 58 -52z m923 -140 c0 -48 -3 -88
-8 -88 -4 0 -50 43 -102 95 l-95 95 50 44 50 44 53 -51 52 -51 0 -88z m-3296
131 l37 -40 -3 -209 -3 -209 -34 -35 c-19 -20 -39 -36 -43 -36 -4 0 -8 128 -8
285 0 158 4 285 9 285 5 0 25 -18 45 -41z m870 1 l36 -40 0 -205 0 -205 -36
-40 c-20 -22 -40 -40 -45 -40 -5 0 -9 127 -9 285 0 158 4 285 9 285 5 0 25
-18 45 -40z m863 8 l33 -32 0 -216 0 -217 -37 -39 -38 -38 -6 119 c-6 129 1
455 10 455 3 0 20 -14 38 -32z m903 -247 l0 -217 -40 -39 -40 -39 0 288 0 288
40 -32 40 -32 0 -217z m832 242 l38 -37 0 -211 0 -211 -38 -37 -39 -38 -6 188
c-9 244 -9 383 0 383 4 0 24 -17 45 -37z m-2884 -156 l102 -102 0 -88 c0 -48
-3 -87 -8 -87 -7 0 -168 161 -252 253 l-43 48 38 39 c22 22 44 40 50 40 6 0
56 -46 113 -103z m870 0 l102 -102 0 -88 c0 -48 -3 -87 -7 -87 -11 0 -293 283
-293 294 0 14 72 86 85 86 6 0 56 -46 113 -103z m870 -1 l102 -103 0 -86 c0
-47 -4 -88 -8 -91 -5 -3 -76 63 -158 145 l-149 150 48 45 c27 24 52 44 56 44
4 0 53 -47 109 -104z m870 0 l102 -103 0 -87 c0 -47 -3 -86 -7 -86 -11 0 -293
283 -293 294 0 14 72 86 85 86 6 0 57 -47 113 -104z m-2143 -25 l59 -61 -89
-90 c-49 -50 -93 -90 -97 -90 -5 0 -8 81 -8 181 l0 181 38 -30 c20 -17 64 -58
97 -91z m-896 24 l86 -84 -90 -91 c-49 -49 -93 -90 -97 -90 -5 0 -8 79 -8 175
0 124 3 175 11 175 7 0 51 -38 98 -85z m1705 34 c31 -28 70 -69 87 -91 l32
-40 -89 -89 c-49 -49 -92 -89 -96 -89 -5 0 -8 81 -8 180 0 103 4 180 9 180 5
0 34 -23 65 -51z m893 -31 c46 -46 83 -87 83 -93 0 -11 -161 -175 -172 -175
-5 0 -8 79 -8 175 0 96 3 175 7 175 4 0 45 -37 90 -82z m-1197 -413 l0 -90
-207 207 -208 208 45 45 44 45 163 -162 163 -163 0 -90z m-1028 248 l158 -158
0 -90 0 -90 -205 205 -205 205 42 42 c23 24 45 43 47 43 3 0 77 -71 163 -157z
m1740 0 l158 -158 0 -82 c0 -46 -3 -83 -7 -83 -4 0 -97 89 -205 197 l-198 198
42 42 c23 24 45 43 47 43 3 0 77 -71 163 -157z m871 -1 l157 -158 0 -81 c0
-44 -3 -83 -7 -87 -4 -4 -98 84 -210 196 l-203 203 42 42 c23 24 47 43 53 43
6 0 82 -71 168 -158z m-3000 -244 l-208 -208 -42 42 c-24 23 -43 47 -43 52 0
6 91 102 202 213 l203 203 47 -47 48 -48 -207 -207z m1032 252 l39 -40 -207
-208 -207 -207 -40 45 -39 45 202 203 c111 111 204 202 207 202 3 0 24 -18 45
-40z m870 0 l39 -40 -206 -207 -207 -207 -42 43 -42 43 204 204 c112 112 206
204 209 204 3 0 24 -18 45 -40z m870 0 l39 -40 -204 -205 -205 -205 -45 45
-45 45 200 200 c110 110 205 200 210 200 6 0 29 -18 50 -40z m-2665 -355
l-205 -205 -45 45 -45 45 205 205 205 205 45 -45 45 -45 -205 -205z m1030 259
c22 -20 40 -41 40 -48 0 -6 -92 -103 -205 -216 l-205 -204 -45 44 -45 44 207
208 c114 115 209 208 210 208 2 0 21 -16 43 -36z m708 -261 l-208 -207 -40 39
c-22 21 -40 45 -40 53 0 7 90 104 201 214 l200 201 47 -46 47 -47 -207 -207z
m1030 254 c23 -23 42 -47 42 -52 0 -13 -392 -405 -405 -405 -6 0 -31 20 -55
45 l-44 45 204 205 c113 113 207 205 210 205 3 0 25 -19 48 -43z m-2663 -357
l-205 -205 -42 43 -43 42 205 205 205 205 42 -42 43 -43 -205 -205z m1035 245
l45 -45 -208 -208 -208 -207 -40 45 c-21 25 -39 49 -39 54 0 10 390 406 400
406 3 0 26 -20 50 -45z m705 -245 l-205 -205 -42 43 -43 42 205 205 205 205
42 -42 43 -43 -205 -205z m1035 245 l44 -45 -204 -205 -205 -205 -47 47 -48
48 202 202 c112 112 205 203 208 203 3 0 26 -20 50 -45z m-1790 -350 c-113
-113 -210 -205 -215 -205 -6 0 -28 18 -50 40 l-39 40 104 107 c58 60 152 154
210 210 l105 101 45 -44 45 -44 -205 -205z m865 -5 l-205 -205 -47 48 -48 47
205 205 205 205 47 -47 48 -48 -205 -205z m-1570 250 l39 -40 -209 -210 -210
-210 -45 45 -45 45 205 205 c113 113 210 205 215 205 6 0 29 -18 50 -40z
m2603 -3 l42 -42 -208 -208 -208 -207 -44 45 -44 45 204 205 c113 113 207 205
210 205 3 0 25 -19 48 -43z m-3370 -194 l-48 -47 -45 44 -45 44 47 48 47 48
46 -45 45 -45 -47 -47z m872 2 c-24 -25 -48 -45 -52 -45 -4 0 -26 18 -49 41
l-41 41 48 49 48 49 45 -45 45 -45 -44 -45z m868 -2 l-48 -47 -45 44 -45 44
47 48 47 48 46 -45 45 -45 -47 -47z m870 0 l-48 -47 -45 44 -45 44 47 48 47
48 46 -45 45 -45 -47 -47z m862 2 l-50 -50 -42 43 -42 42 49 50 49 50 43 -42
43 -42 -50 -51z m-3465 -25 l55 54 45 -44 45 -44 -102 -103 -103 -103 -92 92
c-51 51 -93 97 -93 102 0 6 19 30 42 53 l42 43 53 -52 53 -52 55 54z m762 -2
l53 -52 55 54 55 55 45 -45 45 -45 -100 -100 -100 -100 -100 100 -100 99 42
43 c23 24 44 43 47 43 3 0 29 -23 58 -52z m978 2 l55 54 40 -39 c22 -21 40
-44 40 -50 0 -6 -43 -53 -95 -105 l-95 -95 -97 97 -98 98 45 45 44 45 53 -52
53 -52 55 54z m870 0 l55 55 48 -48 47 -47 -103 -102 -102 -103 -102 102 -103
103 50 44 50 44 53 -51 52 -51 55 54z m760 0 l50 -50 52 50 c29 28 56 50 61
50 4 0 27 -19 50 -43 l42 -43 -100 -99 -100 -100 -100 100 -100 99 42 43 c23
24 44 43 47 43 3 0 28 -22 56 -50z m-2405 -295 l-155 -155 -147 147 c-82 81
-148 152 -148 157 0 14 71 86 84 86 6 0 57 -46 113 -102 l103 -103 107 108
108 107 45 -45 45 -45 -155 -155z m1013 171 c15 -22 11 -27 -139 -177 l-154
-154 -152 153 -153 152 48 47 47 48 105 -105 105 -105 107 107 106 106 33 -24
c18 -14 39 -35 47 -48z m727 -171 l-155 -155 -150 150 -150 150 48 47 47 48
105 -105 105 -105 107 108 108 107 45 -45 45 -45 -155 -155z m1020 150 c0 -6
-67 -77 -149 -159 l-149 -149 -112 104 c-61 57 -129 126 -152 152 l-41 49 47
46 46 47 105 -105 105 -105 107 107 108 108 42 -42 c24 -23 43 -47 43 -53z
m-3391 -70 l41 -45 0 -422 0 -423 -47 48 -48 47 -3 420 c-1 246 1 420 6 420 5
0 28 -20 51 -45z m211 0 l44 -45 -89 -90 c-49 -50 -93 -90 -97 -90 -5 0 -8 41
-8 92 l0 92 42 43 c23 24 47 43 53 43 6 0 31 -20 55 -45z m698 -470 l-3 -420
-47 46 -48 46 0 424 0 424 50 -50 50 -50 -2 -420z m164 478 c21 -20 38 -42 38
-47 0 -12 -161 -176 -172 -176 -5 0 -8 39 -8 87 l0 87 42 43 c23 24 47 43 52
43 6 0 27 -17 48 -37z m706 -475 l-3 -417 -47 44 -48 44 0 423 0 423 50 -50
50 -50 -2 -417z m164 475 c21 -20 38 -42 38 -48 0 -6 -40 -51 -90 -100 l-90
-90 0 95 0 94 42 43 c23 24 47 43 52 43 6 0 27 -17 48 -37z m706 -478 l-3
-420 -47 46 -48 46 0 424 0 424 50 -50 50 -50 -2 -420z m160 472 l42 -43 -87
-86 c-47 -48 -90 -85 -95 -82 -4 3 -8 39 -8 80 l0 75 46 49 c26 28 50 50 53
50 4 0 26 -19 49 -43z m-2888 -369 l0 -403 -45 47 -45 47 0 311 0 310 41 45
c23 25 43 45 45 45 2 0 4 -181 4 -402z m870 0 l0 -403 -45 47 -45 47 0 313 0
312 42 43 c23 24 43 43 45 43 2 0 3 -181 3 -402z m870 0 l0 -402 -45 44 -45
44 0 315 0 315 42 43 c23 24 43 43 45 43 2 0 3 -181 3 -402z m866 -395 c-2 -2
-22 15 -45 39 l-40 43 -1 313 0 312 43 47 42 46 3 -398 c1 -219 0 -400 -2
-402z m868 -2 c-3 -3 -24 14 -45 39 l-39 45 0 319 0 318 43 42 42 41 3 -399
c1 -220 -1 -402 -4 -405z m-3044 615 c0 -12 -271 -286 -282 -286 -5 0 -8 39
-8 87 l0 88 102 102 102 103 43 -42 c24 -23 43 -47 43 -52z m834 37 l40 -46
-145 -141 -144 -141 -3 89 -3 90 98 98 c54 54 102 98 108 98 5 -1 28 -21 49
-47z m864 11 c23 -19 42 -41 42 -47 0 -7 -63 -75 -140 -152 -158 -157 -160
-158 -160 -41 l0 69 102 103 c56 57 105 104 108 104 4 0 25 -16 48 -36z m872
-9 l45 -45 -142 -141 c-82 -83 -145 -139 -152 -135 -6 4 -11 38 -11 83 l0 76
102 103 c56 57 105 104 108 104 3 0 26 -20 50 -45z m-3100 -252 c0 -144 -3
-269 -6 -278 -6 -14 -13 -10 -45 21 l-39 38 0 215 0 215 37 38 c26 27 39 34
45 25 4 -6 8 -130 8 -274z m870 -3 c0 -159 -3 -290 -7 -290 -4 0 -24 17 -45
37 l-38 37 0 215 0 215 37 38 c20 21 41 38 45 38 4 0 8 -130 8 -290z m869 -15
c1 -126 -2 -240 -5 -253 -7 -23 -7 -23 -45 14 l-39 38 0 215 0 215 38 39 37
38 7 -38 c4 -21 7 -141 7 -268z m861 15 c0 -274 -1 -290 -17 -281 -10 5 -29
21 -43 36 -25 26 -25 29 -28 223 -2 108 -1 206 3 219 6 25 62 93 76 93 5 0 9
-126 9 -290z m864 -289 c-3 -3 -23 13 -45 36 l-39 42 0 206 0 205 43 47 42 46
3 -288 c1 -158 0 -291 -4 -294z m-2864 444 l44 -45 -34 -37 c-76 -84 -355
-363 -362 -363 -5 0 -8 42 -8 92 l0 93 152 152 c84 84 155 153 158 153 3 0 26
-20 50 -45z m870 0 l45 -45 -203 -203 -202 -202 0 95 0 95 152 152 c84 84 155
153 158 153 3 0 26 -20 50 -45z m870 -1 l45 -46 -200 -194 -200 -195 -3 88 -3
87 153 153 c84 84 155 153 158 153 3 0 26 -21 50 -46z m870 1 l44 -45 -199
-200 c-160 -160 -201 -196 -208 -184 -5 9 -7 49 -5 90 l3 74 155 155 c85 85
157 155 160 155 3 0 26 -20 50 -45z m-3320 -155 c0 -99 -3 -180 -7 -180 -4 0
-24 17 -45 37 l-38 37 0 105 0 105 37 38 c20 21 41 38 45 38 4 0 8 -81 8 -180z
m870 0 c0 -99 -3 -180 -7 -180 -4 0 -24 17 -45 37 l-38 37 0 105 0 105 37 38
c20 21 41 38 45 38 4 0 8 -81 8 -180z m870 -5 c0 -102 -2 -185 -5 -185 -3 0
-23 16 -45 36 l-40 36 0 111 0 111 37 38 c20 21 41 38 45 38 4 0 8 -83 8 -185z
m870 0 c0 -102 -2 -185 -5 -185 -3 0 -23 16 -45 36 l-40 36 0 111 0 111 37 38
c20 21 41 38 45 38 4 0 8 -83 8 -185z m869 -2 c1 -83 -2 -159 -5 -168 -6 -14
-13 -10 -45 21 l-39 38 0 110 0 110 37 38 c49 50 51 44 52 -149z m-2924 -303
l-205 -205 0 95 0 95 203 203 202 202 3 -92 3 -92 -206 -206z m870 0 l-205
-205 0 98 0 98 203 199 202 198 3 -91 3 -91 -206 -206z m870 0 l-205 -205 0
95 0 95 203 203 202 202 3 -92 3 -92 -206 -206z m874 4 c-112 -112 -206 -201
-211 -198 -4 3 -8 44 -8 92 l0 87 207 201 208 202 3 -91 3 -91 -202 -202z
m-2894 -284 c-21 -22 -44 -40 -50 -40 -5 0 -102 92 -215 205 l-204 205 44 45
45 45 210 -210 209 -210 -39 -40z m702 258 c112 -112 203 -208 203 -213 0 -6
-18 -29 -40 -50 l-40 -39 -210 209 -210 210 42 42 c23 24 45 43 47 43 3 0 97
-91 208 -202z m1035 -260 l-42 -43 -210 210 -210 210 42 42 43 43 210 -210
210 -210 -43 -42z m863 2 l-45 -45 -207 207 -208 208 45 45 44 45 208 -207
208 -208 -45 -45z m-2872 142 l207 -208 -45 -44 -45 -44 -205 204 c-113 113
-205 209 -205 214 0 11 70 86 80 86 3 0 99 -93 213 -208z m877 3 l205 -205
-47 -47 -47 -46 -155 147 c-85 81 -179 175 -210 210 l-55 63 42 41 c23 23 46
42 52 42 6 0 102 -92 215 -205z m860 0 l204 -205 -44 -45 -44 -45 -203 202
c-112 112 -203 207 -203 212 0 11 70 86 80 86 3 0 97 -92 210 -205z m876 0
l208 -205 -44 -45 c-24 -25 -49 -45 -55 -45 -5 0 -102 92 -215 205 l-204 205
44 45 c24 25 47 45 51 45 4 0 101 -92 215 -205z m863 1 l204 -204 -38 -46
c-20 -25 -40 -46 -44 -46 -3 0 -99 93 -213 207 l-208 208 42 42 c23 24 45 43
48 43 3 0 97 -92 209 -204z m-2716 -114 l208 -208 -40 -37 c-22 -20 -44 -37
-48 -37 -5 0 -100 92 -213 205 l-204 205 39 40 c21 22 42 40 45 40 3 0 99 -94
213 -208z m870 0 l207 -208 -43 -42 -42 -42 -210 210 -209 210 39 40 c21 22
42 40 45 40 3 0 99 -93 213 -208z m874 5 l203 -203 -45 -44 -45 -45 -207 208
-207 207 39 40 c21 22 44 40 50 40 5 0 101 -92 212 -203z m862 -1 c223 -223
216 -210 152 -270 l-31 -30 -68 70 c-38 38 -131 133 -207 212 l-139 142 39 40
c22 22 42 40 45 40 3 0 97 -92 209 -204z m-2712 -98 c112 -112 203 -207 203
-212 0 -14 -72 -86 -85 -86 -5 0 -102 92 -215 205 l-204 205 44 45 c24 25 47
45 49 45 3 0 97 -91 208 -202z m1885 -150 l61 -69 -46 -47 -47 -47 -210 210
-210 210 47 47 46 47 149 -141 c81 -77 176 -172 210 -210z m-1012 137 l204
-205 -39 -40 c-21 -22 -44 -40 -50 -40 -5 0 -102 92 -215 205 l-204 205 39 40
c21 22 44 40 50 40 5 0 102 -92 215 -205z m1738 2 l202 -203 -45 -44 c-44 -44
-44 -44 -67 -25 -51 42 -388 380 -388 389 0 14 72 86 85 86 5 0 101 -91 213
-203z m-2070 -19 l-3 -43 -40 37 -40 37 40 41 40 41 3 -35 c2 -20 2 -55 0 -78z
m-868 32 c0 -38 -4 -70 -8 -70 -4 0 -23 16 -42 35 l-34 35 34 35 c19 19 38 35
42 35 4 0 8 -31 8 -70z m67 38 l32 -31 -30 -39 c-17 -21 -35 -38 -40 -38 -5 0
-9 32 -9 70 0 39 3 70 7 70 4 0 22 -14 40 -32z m871 -1 l32 -33 -40 -39 -40
-39 0 72 c0 40 4 72 8 72 4 0 22 -15 40 -33z m802 -37 c0 -38 -4 -70 -8 -70
-4 0 -23 16 -42 35 l-34 35 34 35 c19 19 38 35 42 35 4 0 8 -31 8 -70z m69 36
l33 -34 -32 -36 c-18 -20 -36 -36 -41 -36 -5 0 -9 32 -9 70 0 39 4 70 8 70 4
0 23 -15 41 -34z m801 -36 c0 -38 -3 -70 -7 -70 -12 0 -73 63 -73 76 0 13 58
64 73 64 4 0 7 -31 7 -70z m60 35 l34 -35 -34 -35 c-30 -31 -35 -33 -42 -18
-9 25 -10 123 0 123 4 0 23 -16 42 -35z m-2552 -232 l-93 -93 -3 92 -3 92 48
48 47 48 48 -47 48 -47 -92 -93z m-159 132 l41 -45 0 -91 0 -91 -56 48 c-31
26 -74 68 -95 93 l-40 45 43 43 c23 24 47 43 54 43 6 0 30 -20 53 -45z m870 0
l41 -45 0 -91 0 -91 -37 30 c-21 16 -64 58 -97 92 l-59 61 44 45 c24 24 48 44
55 44 6 0 30 -20 53 -45z m206 5 l39 -40 -92 -93 -92 -92 0 90 0 89 42 43 c23
24 47 43 53 43 6 0 29 -18 50 -40z m657 -7 l48 -47 0 -88 c0 -48 -3 -88 -8
-88 -4 0 -48 40 -97 90 l-89 90 44 45 c24 25 46 45 49 45 3 0 27 -21 53 -47z
m208 2 l45 -45 -93 -93 -92 -92 0 95 0 94 42 43 c23 24 45 43 48 43 3 0 26
-20 50 -45z m662 -2 l48 -47 0 -90 0 -91 -95 95 -95 94 42 43 c23 24 44 43 47
43 3 0 27 -21 53 -47z m206 4 l42 -43 -90 -89 c-101 -101 -105 -100 -98 15 3
67 5 72 48 115 24 25 47 45 50 45 3 0 25 -19 48 -43z m-1898 -349 c0 -49 -3
-88 -7 -88 -4 0 -72 64 -150 142 l-143 143 47 47 47 48 103 -102 103 -103 0
-87z m1637 190 l103 -103 0 -87 c0 -49 -3 -88 -8 -88 -4 0 -72 65 -152 145
l-144 145 44 45 c24 25 47 45 49 45 3 0 52 -46 108 -102z m274 -132 c-80 -80
-148 -143 -153 -140 -4 3 -8 39 -8 81 l0 76 107 109 107 108 46 -45 45 -45
-144 -144z m-2878 125 l97 -98 0 -88 0 -88 -27 24 c-71 61 -263 255 -263 263
0 14 72 86 85 86 6 0 55 -44 108 -99z m372 59 l39 -40 -147 -148 -147 -147 0
90 0 90 97 97 c54 54 102 98 108 98 6 0 29 -18 50 -40z m865 -5 l44 -45 -144
-143 -145 -142 -3 89 -3 90 98 98 c54 54 100 98 103 98 3 0 26 -20 50 -45z
m502 -52 l98 -98 0 -92 c0 -51 -4 -93 -9 -93 -5 0 -72 67 -149 148 l-141 148
42 42 c23 23 46 42 52 42 5 0 54 -44 107 -97z m370 60 c21 -20 38 -42 38 -47
0 -12 -271 -286 -282 -286 -5 0 -8 39 -8 87 l0 88 97 97 c54 54 102 98 107 98
6 0 27 -17 48 -37z m163 -341 c-3 -3 -23 12 -45 33 l-40 39 42 44 43 43 3 -77
c2 -42 0 -79 -3 -82z m875 78 c0 -38 -4 -71 -8 -74 -5 -3 -26 13 -47 34 l-39
40 39 40 c21 21 42 37 47 34 4 -3 8 -36 8 -74z"/>
</g>
</svg>
