<?xml version="1.0" standalone="no"?>
<!DOCTYPE svg PUBLIC "-//W3C//DTD SVG 20010904//EN"
 "http://www.w3.org/TR/2001/REC-SVG-20010904/DTD/svg10.dtd">
<svg version="1.0" xmlns="http://www.w3.org/2000/svg"
 width="2587.000000pt" height="1883.000000pt" viewBox="0 0 2587.000000 1883.000000"
 preserveAspectRatio="xMidYMid meet">

<g transform="translate(0.000000,1883.000000) scale(0.100000,-0.100000)"
fill="#000000" stroke="none">
<path d="M24893 15397 c-258 -393 -1285 -804 -2655 -1062 -543 -103 -850 -198
-1099 -342 -534 -309 -800 -864 -776 -1617 16 -499 135 -997 370 -1556 71
-167 74 -166 76 25 3 248 33 546 76 763 133 655 574 1236 1147 1506 249 118
587 221 853 260 55 9 37 -1 -140 -74 -82 -34 -183 -79 -224 -101 -320 -171
-593 -433 -831 -796 -201 -306 -370 -712 -370 -890 l0 -63 121 61 c200 100
332 123 808 139 412 14 587 32 845 86 506 107 910 315 1250 644 132 128 208
223 285 358 164 286 296 756 358 1270 14 117 18 226 18 537 0 397 -10 541 -58
843 l-12 73 -42 -64z"/>
<path d="M2393 12839 c-507 -59 -910 -421 -1036 -929 -20 -83 -21 -109 -24
-1067 l-4 -983 -664 0 -665 0 0 -840 0 -840 665 0 665 0 0 -2884 c0 -1881 4
-2928 10 -3012 42 -522 196 -937 463 -1243 181 -206 514 -425 849 -555 328
-129 658 -194 1079 -216 218 -11 1247 2 1559 20 91 5 177 9 193 10 l27 0 0
936 0 936 -132 -6 c-318 -14 -705 -18 -793 -6 -136 17 -240 46 -345 97 -81 39
-108 59 -185 137 -73 73 -99 107 -133 177 -51 104 -88 245 -102 387 -7 71 -10
1776 -10 5000 l0 4892 -672 -1 c-370 -1 -705 -5 -745 -10z"/>
<path d="M7735 12843 c-544 -49 -986 -458 -1080 -1000 -13 -75 -15 -779 -15
-5789 l0 -5704 29 -32 29 -33 1191 -3 c1322 -3 1248 -6 1276 62 13 31 15 395
15 2800 0 1837 3 2799 10 2867 48 478 198 866 469 1208 86 110 277 292 392
373 114 82 320 186 449 229 235 78 517 111 770 91 443 -34 758 -168 1020 -432
254 -256 399 -558 467 -971 16 -96 18 -339 23 -3135 4 -2605 7 -3033 19 -3048
40 -48 -7 -46 1246 -46 1287 0 1228 -3 1259 59 14 27 16 340 16 3178 0 2033
-4 3206 -10 3313 -35 556 -147 1026 -349 1464 -170 367 -463 765 -761 1033
-592 534 -1306 793 -2185 793 -1172 0 -1942 -388 -2661 -1341 -100 -133 -134
-169 -161 -169 -11 0 -13 397 -13 2071 0 1915 -1 2074 -17 2106 -30 65 -12 63
-735 61 -359 -1 -671 -3 -693 -5z"/>
<path d="M20820 10114 c-671 -48 -1220 -185 -1739 -435 -604 -291 -1152 -742
-1607 -1324 -113 -145 -314 -447 -405 -610 -352 -630 -555 -1321 -631 -2145
-20 -218 -17 -875 5 -1110 107 -1141 464 -2053 1114 -2845 503 -613 1134
-1060 1878 -1330 931 -338 2199 -408 3221 -180 816 183 1512 570 2080 1157
493 511 808 1091 968 1786 l14 62 -1253 0 -1252 0 -18 -47 c-10 -27 -43 -97
-73 -158 -272 -548 -737 -865 -1392 -949 -520 -67 -1073 11 -1485 208 -478
229 -851 645 -1080 1205 -91 223 -174 519 -215 771 -11 69 -22 137 -25 152
l-4 28 3472 2 3472 3 -3 200 c-18 1192 -241 2231 -662 3090 -545 1110 -1347
1856 -2381 2213 -353 122 -694 195 -1110 238 -146 15 -756 27 -889 18z m591
-1965 c256 -26 477 -89 696 -199 173 -87 294 -174 442 -315 307 -295 498 -634
601 -1071 24 -102 60 -344 60 -406 l0 -48 -2125 0 c-1169 0 -2125 3 -2125 8 0
4 16 75 34 159 136 604 365 1048 707 1366 320 298 733 467 1254 510 96 8 362
6 456 -4z"/>
</g>
</svg>
